<?xml version="1.0" encoding="utf-8"?>
<!-- Generator: Adobe Illustrator 16.0.0, SVG Export Plug-In . SVG Version: 6.00 Build 0)  -->
<!DOCTYPE svg PUBLIC "-//W3C//DTD SVG 1.1//EN" "http://www.w3.org/Graphics/SVG/1.1/DTD/svg11.dtd">
<svg version="1.1" id="Layer_1" xmlns="http://www.w3.org/2000/svg" xmlns:xlink="http://www.w3.org/1999/xlink" x="0px" y="0px"
	 width="24.004px" height="18.997px" viewBox="0 0 24.004 18.997" enable-background="new 0 0 24.004 18.997" xml:space="preserve">
<g>
	<g>
		<path fill="#FFFFFF" d="M18.303,7.959c1.709,0,3.26,0.67,4.408,1.752c1.278-2.062,1.792-4.273,0.691-6.413
			c-3.562-6.917-10.787-0.857-11.4-0.542C11.39,2.442,4.164-3.619,0.603,3.299c-3.745,7.274,11.173,15.389,11.399,15.653
			c0.039-0.047,0.519-0.328,1.264-0.799c-0.847-1.072-1.356-2.415-1.356-3.877C11.91,10.793,14.778,7.959,18.303,7.959z
			 M18.303,9.555c-2.639,0-4.778,2.113-4.778,4.721s2.14,4.721,4.778,4.721s4.778-2.113,4.778-4.721S20.942,9.555,18.303,9.555z
			 M19.406,15.329c-0.074,0.148-0.17,0.268-0.286,0.355c-0.117,0.086-0.285,0.152-0.504,0.198v0.624H18.17v-0.61
			c-0.206-0.022-0.382-0.075-0.527-0.154c-0.199-0.108-0.384-0.254-0.554-0.435l0.449-0.456c0.289,0.304,0.568,0.456,0.838,0.456
			c0.137,0,0.256-0.048,0.354-0.142c0.098-0.095,0.147-0.205,0.147-0.333c0-0.107-0.032-0.201-0.095-0.283
			c-0.065-0.08-0.189-0.163-0.374-0.247c-0.375-0.172-0.63-0.308-0.762-0.409c-0.133-0.1-0.231-0.213-0.297-0.338
			c-0.065-0.126-0.099-0.26-0.099-0.4c0-0.236,0.087-0.438,0.261-0.605c0.173-0.168,0.393-0.257,0.657-0.27v-0.234h0.445v0.265
			c0.152,0.036,0.283,0.085,0.39,0.146s0.231,0.163,0.377,0.309l-0.457,0.439c-0.208-0.212-0.414-0.318-0.617-0.318
			c-0.12,0-0.217,0.031-0.292,0.094c-0.075,0.063-0.113,0.137-0.113,0.22c0,0.07,0.033,0.14,0.1,0.208
			c0.064,0.07,0.195,0.145,0.393,0.225c0.351,0.143,0.59,0.266,0.72,0.367c0.129,0.101,0.229,0.223,0.298,0.364
			s0.104,0.301,0.104,0.477C19.517,15.016,19.48,15.178,19.406,15.329z"/>
	</g>
</g>
</svg>
