<?xml version="1.0" encoding="utf-8"?>
<!-- Generator: Adobe Illustrator 16.0.0, SVG Export Plug-In . SVG Version: 6.00 Build 0)  -->
<!DOCTYPE svg PUBLIC "-//W3C//DTD SVG 1.1//EN" "http://www.w3.org/Graphics/SVG/1.1/DTD/svg11.dtd">
<svg version="1.1" id="Layer_1" xmlns="http://www.w3.org/2000/svg" xmlns:xlink="http://www.w3.org/1999/xlink" x="0px" y="0px"
	 width="8.99px" height="10.01px" viewBox="0 0 8.99 10.01" enable-background="new 0 0 8.99 10.01" xml:space="preserve">
<path fill="#0099CC" d="M7.463,4.066H7.124V2.444C7.124,1.094,5.938,0,4.474,0s-2.65,1.094-2.65,2.444v1.622H1.526
	C0.684,4.066,0,4.697,0,5.475v3.128C0,9.38,0.684,10.01,1.526,10.01h5.937c0.844,0,1.527-0.63,1.527-1.407V5.475
	C8.99,4.697,8.307,4.066,7.463,4.066z M3.35,2.444c0-0.571,0.505-1.037,1.124-1.037c0.62,0,1.124,0.465,1.124,1.037v1.622H3.35
	V2.444z"/>
</svg>
