<?xml version="1.0" encoding="utf-8"?>
<!-- Generator: Adobe Illustrator 16.0.0, SVG Export Plug-In . SVG Version: 6.00 Build 0)  -->
<!DOCTYPE svg PUBLIC "-//W3C//DTD SVG 1.1//EN" "http://www.w3.org/Graphics/SVG/1.1/DTD/svg11.dtd">
<svg version="1.1" id="Layer_1" xmlns="http://www.w3.org/2000/svg" xmlns:xlink="http://www.w3.org/1999/xlink" x="0px" y="0px"
	 width="20.01px" height="17.992px" viewBox="0 0 20.01 17.992" enable-background="new 0 0 20.01 17.992" xml:space="preserve">
<g>
	<g>
		<path fill="#FFFFFF" d="M19.036,0c0,0-7.079,0.214-8.599,1.771c-0.153,0.157-0.297,0.34-0.433,0.542
			C9.869,2.112,9.726,1.928,9.572,1.771C8.053,0.214,0.974,0,0.974,0C0.436,0,0,0.447,0,0.998v13.629
			c0,0.551,0.436,0.998,0.974,0.998c0,0,5.205,2.445,7.646,2.16c0.397,0.13,0.873,0.207,1.385,0.207s0.987-0.077,1.385-0.207
			c1.188,0.139,3.031-0.37,4.609-0.928c-0.007-0.002-0.014-0.002-0.021-0.004c-0.59-0.146-1.062-0.6-1.242-1.193l-1.605-5.273
			c-0.208-0.682,0.006-1.425,0.54-1.883c0.317-0.272,0.712-0.413,1.109-0.413c0.271,0,0.544,0.065,0.796,0.199l4.435,2.359v-9.65
			C20.01,0.447,19.574,0,19.036,0z M14.778,9.859l1.605,5.273l1.274-1.324l1.313,1.606c0.094,0.115,0.263,0.13,0.375,0.034
			c0.113-0.098,0.128-0.27,0.033-0.385l-1.313-1.607l1.498-1.051L14.778,9.859z"/>
	</g>
</g>
</svg>
