<?xml version="1.0" encoding="utf-8"?>
<!-- Generator: Adobe Illustrator 16.0.0, SVG Export Plug-In . SVG Version: 6.00 Build 0)  -->
<!DOCTYPE svg PUBLIC "-//W3C//DTD SVG 1.1//EN" "http://www.w3.org/Graphics/SVG/1.1/DTD/svg11.dtd">
<svg version="1.1" id="Layer_1" xmlns="http://www.w3.org/2000/svg" xmlns:xlink="http://www.w3.org/1999/xlink" x="0px" y="0px"
	 width="374.999px" height="309.413px" viewBox="0 0 374.999 309.413" enable-background="new 0 0 374.999 309.413"
	 xml:space="preserve">
<path opacity="0.11" fill="#FFFFFF" d="M362.651,73.286l-93.762-16.541l2.323-13.141c2.618-14.867-7.354-29.084-22.203-31.702
	L183.914,0.418c-14.849-2.618-29.067,7.335-31.684,22.203l-2.324,13.149L56.144,19.238c-3.33-0.587-6.49,0.089-9.401,1.247
	c9.65,60.021,59.496,112.448,127.868,130.343l0.169-0.979c0.979-5.502,0.044-10.273,5.359-9.348l24.411,4.309
	c5.306,0.944,2.991,5.146,2.03,10.63l-0.178,0.997c70.312,6.535,135.097-25.675,164.689-78.743
	C368.731,75.583,365.98,73.873,362.651,73.286z M250.923,53.575l-83.052-14.636l2.315-13.149c0.873-4.95,5.626-8.279,10.559-7.407
	l65.104,11.475c4.95,0.891,8.262,5.626,7.389,10.577L250.923,53.575z"/>
<path opacity="0.11" fill="#FFFFFF" d="M203.295,174.027l-0.285,1.62c-0.97,5.511-0.231,10.247-5.537,9.304l-24.411-4.309
	c-5.315-0.936-2.813-5.084-1.843-10.604l0.285-1.603C103.506,151.094,51.782,102.78,33.807,44.53L0.271,234.689
	c-1.692,9.579,4.691,18.714,14.289,20.405l306.507,54.048c9.57,1.691,18.722-4.719,20.405-14.298l33.527-190.142
	C338.178,153.266,273.082,180.98,203.295,174.027z"/>
</svg>
