<?xml version="1.0" encoding="utf-8"?>
<!-- Generator: Adobe Illustrator 16.0.0, SVG Export Plug-In . SVG Version: 6.00 Build 0)  -->
<!DOCTYPE svg PUBLIC "-//W3C//DTD SVG 1.1//EN" "http://www.w3.org/Graphics/SVG/1.1/DTD/svg11.dtd">
<svg version="1.1" id="Layer_1" xmlns="http://www.w3.org/2000/svg" xmlns:xlink="http://www.w3.org/1999/xlink" x="0px" y="0px"
	 width="393.387px" height="450px" viewBox="0 0 393.387 450" enable-background="new 0 0 393.387 450" xml:space="preserve">
<path fill="#E66538" d="M25.492,90.861c-1.572-2.086-2.713-4.195-3.425-6.268c-0.356-1.036-0.605-2.063-0.748-3.071
	c-0.143-1.009-0.179-1.999-0.11-2.961c0.271-3.84,2.235-7.266,5.723-9.408c6.97-4.322,15.298-3.086,21.095,4.942
	c1.408-0.739,36.417,59.231,36.738,58.164c-7.047-26.871-15.387-54.934-25.776-83.505c-2.544-6.729-0.043-18.596,7.68-22.875
	c9.306-5.1,17.857,3.485,20.058,11.022c1.321,0.928,25.791,81.337,26.54,79.917c-1.165-29.033-2.914-60.295-5.458-94.601
	c0.009-11.74,3.628-21.729,11.578-22.204c0.247-0.015,0.496-0.018,0.744-0.01c0.249,0.008,0.497,0.028,0.745,0.058
	c0.496,0.06,0.993,0.164,1.485,0.308c0.985,0.288,1.959,0.738,2.902,1.327c1.887,1.177,3.652,2.91,5.16,5.006
	c3.019,4.196,5.004,9.83,4.985,15.437c0.021,0.435,1.728,26.519,3.246,50.737c1.575,24.499,2.961,47.133,3.669,47.153
	c6.165-25.408,12.473-52.348,19.347-80.366c1.772-7.619,9.662-16.836,16.183-13.077c6.509,3.735,9.241,16.348,7.358,23.262
	c-7.067,30.557-13.508,60.277-19.641,88.417c0.492,7.182,3.993,13.134,5.639,20.267c-0.016,0.1,19.516-37.123,40.745-41.724
	c6.637-1.546,13.796-1.694,19.143,2.644c1.338,1.083,1.973,2.364,2.001,3.795c0.013,0.716-0.124,1.469-0.399,2.254
	c-0.275,0.784-0.689,1.6-1.226,2.439c-2.148,3.355-6.276,7.104-11.449,10.722c-19.708,13.88-25.746,38.301-32.394,54.955
	c-3.885,9.865-10.787,19.056-19.25,26.555c-5.324,19.694-4.681,34.278-1.947,47.087c0.761,15.099,14.669,181.775,16.693,181.887
	c-43.691,0.34-82.421,0.486-123.022,0.855c2.57-1.395,30.861-191.454,24.891-222.758c-13.269-11.143-22.534-26.445-23.218-44.062
	c-0.274-8.27,1.442-26.638,0.559-28.417C51.72,132.832,39.678,111.025,25.492,90.861L25.492,90.861L25.492,90.861z"/>
<path fill="#E75C2A" d="M1.52,215.053c-0.644-1.25-1.077-2.524-1.312-3.775c-0.118-0.625-0.185-1.245-0.203-1.853
	c-0.019-0.606,0.012-1.202,0.09-1.777c0.312-2.3,1.393-4.301,3.156-5.481c3.524-2.372,7.545-1.432,10.068,3.154
	c0.28-0.276,16.486,33.442,17.249,32.79c-3.139-15.399-6.493-30.923-10.339-46.563c-0.949-3.718,0.972-9.91,5.224-11.752
	c5.114-2.195,9.303,2.418,10.171,6.301c0.224,0.103,11.444,43.042,12.441,42.719c0.086-16.139,0.094-32.638,0.02-49.587
	c0.492-5.794,2.912-10.448,7.479-10.536c4.573-0.091,9.088,5.374,8.763,10.877c-0.004,0.392,1.295,51.17,2.217,51.177
	c4.458-13.994,8.997-28.086,13.865-42.295c1.264-3.849,6.484-8.52,10.75-6.656c4.261,1.849,5.933,8.544,4.584,12.22
	c-5.079,16.144-9.589,32.061-13.941,47.865c0.272,4.145,2.586,7.831,3.652,12.167c-0.041,0.001,13.455-20.278,26.955-20.276
	c4.211-0.057,8.609,0.898,11.671,4.499c0.768,0.898,1.109,1.808,1.094,2.699c-0.007,0.446-0.104,0.889-0.282,1.324
	c-0.177,0.436-0.437,0.865-0.768,1.288c-1.329,1.688-3.823,3.249-7.011,4.593c-12.262,5.255-22.46,16.802-26.808,26.232
	c-2.58,5.604-12.116,15.722-16.092,26.877c-3.652,11.979-3.036,11.714-1.15,20.4c0.6,8.475,10.515,127.613,11.497,127.713
	c-27.57,0.203-43.056,0.348-68.646,0.603c0.98-0.253,14.646-124.681,12.704-142.444c-5.076-15.077-12.517-26.323-12.419-37.387
	c0.064-5.226,1.562-16.661,1.157-17.665C12.394,239.693,7.256,227.135,1.52,215.053L1.52,215.053z"/>
<path fill="#EA754C" d="M308.066,136.972c2.536-7.263,1.192-13.573-2.81-14.88c-4.001-1.305-8.271,1.307-10.807,7.617
	c0,0-17.236,44.949-18.32,44.011l10.083-58.209c0.833-4.651-1.58-11.221-6.182-12.296c-5.53-1.292-9.819,4.666-10.65,9.303
	c0,0-11.631,52.05-12.927,51.846l-0.634-58.347c-0.634-6.624-3.281-11.684-8.108-11.684s-9.626,5.999-9.306,12.323
	c0,0-1.514,59.72-2.529,60.128l-14.891-51.273c-1.303-4.611-6.744-10.718-11.352-9.412c-4.61,1.291-6.738,8.596-5.429,13.191
	l14.565,59.693c-0.314,5.046-2.926,9.29-4.119,14.525c0,0-15.163-26.807-30.593-30.995c-4.841-1.333-9.967-1.687-13.704,1.659
	c-3.744,3.345,0.47,9.412,7.916,14.852c14.25,10.417,19.193,28.778,24.381,41.686c3.054,7.603,8.366,14.539,14.85,20.169
	c4.295,15.641,3.975,27.962,2.216,39.169c-1.582,10.092-4.118,169.056-4.118,169.056h67.451c0,0-5.863-180.616-4.862-202.336
	c8.789-8.692,14.36-21.38,14.36-35.579c0-6.732-1.732-20.891-1.289-22.224L308.066,136.972z"/>
<g>
	<g>
		<path fill="#DE5126" d="M393.298,194.527c-0.29-2.424-1.293-4.533-2.931-5.777c-3.272-2.5-7.006-1.509-9.35,3.325
			c-0.259-0.291-15.308,35.251-16.016,34.565c2.914-16.232,6.029-32.597,9.601-49.084c0.882-3.919-0.903-10.447-4.851-12.388
			c-4.75-2.314-8.64,2.549-9.445,6.642c-0.208,0.108-10.626,45.373-11.553,45.032c-0.08-17.013-0.087-34.406-0.019-52.271
			c-0.457-6.108-2.704-11.015-6.944-11.106c-4.246-0.096-8.439,5.665-8.137,11.465c0.004,0.413-1.203,53.942-2.059,53.948
			c-4.141-14.751-8.354-29.607-12.875-44.585c-1.173-4.057-6.021-8.981-9.982-7.017c-3.956,1.949-5.509,9.007-4.257,12.882
			c4.716,17.018,8.903,33.797,12.945,50.456c-0.252,4.369-2.401,8.254-3.391,12.826c0.038,0.001-12.494-21.376-25.03-21.375
			c-3.911-0.06-7.995,0.948-10.838,4.743c-0.713,0.948-1.029,1.905-1.016,2.845c0.007,0.47,0.097,0.937,0.262,1.395
			c0.166,0.46,0.405,0.913,0.714,1.358c1.234,1.779,3.549,3.424,6.51,4.841c11.386,5.539,15.326,20.386,19.364,30.326
			c2.395,5.907,6.664,11.057,12.017,15.26c3.392,12.628,2.972,22.746,1.221,31.904c-0.557,8.933-9.764,134.521-10.675,134.626
			c25.601,0.215,48.282,0.367,72.044,0.636c-0.91-0.267-13.467-143.244-11.663-161.971c7.204-6.447,11.488-15.934,11.398-27.597
			c-0.06-5.508-1.451-17.562-1.074-18.62c4.607-13.504,9.377-26.743,14.705-39.479c0.597-1.318,0.999-2.661,1.217-3.979
			c0.109-0.659,0.172-1.312,0.188-1.952C393.399,195.761,393.371,195.134,393.298,194.527z"/>
	</g>
</g>
</svg>
