<?xml version="1.0" encoding="utf-8"?>
<!-- Generator: Adobe Illustrator 16.0.0, SVG Export Plug-In . SVG Version: 6.00 Build 0)  -->
<!DOCTYPE svg PUBLIC "-//W3C//DTD SVG 1.1//EN" "http://www.w3.org/Graphics/SVG/1.1/DTD/svg11.dtd">
<svg version="1.1" id="Layer_1" xmlns="http://www.w3.org/2000/svg" xmlns:xlink="http://www.w3.org/1999/xlink" x="0px" y="0px"
	 width="310px" height="91.532px" viewBox="0 0 310 91.532" enable-background="new 0 0 310 91.532" xml:space="preserve">
<g>
	<g>
		<g>
			<path fill="#FFFFFF" d="M10.095,43.418C5.111,43.418,0,40.23,0,31.156c0-7.389,4.674-11.835,10.026-11.835h6.405
				c0.314,0,0.465,0.086,0.433,0.401l-0.242,2.232c-0.036,0.318-0.273,0.469-0.583,0.401c-1.895-0.592-3.034-1.098-6.059-1.098
				c-4.004,0-6.209,3.489-6.209,9.935c0,7.703,3.349,10.145,7.549,10.145c1.566,0,3.458-1.029,4.76-2.205
				c0.073-0.083,0.269-0.155,0.382-0.037l0.829,0.938c0.114,0.124,0.114,0.274,0.041,0.36
				C15.606,42.239,13.005,43.418,10.095,43.418z"/>
			<path fill="#FFFFFF" d="M27.501,43.496c-6.679,0-8.792-4.72-8.792-9.899c0-4.997,2.355-10.062,8.915-10.062
				c6.642,0,8.806,4.71,8.806,9.903C36.429,38.426,34.074,43.496,27.501,43.496z M27.432,25.029c-4.523,0-5.353,4.478-5.353,8.09
				c0,3.457,0.52,8.842,5.626,8.842c4.523,0,5.307-4.478,5.307-8.049C33.013,30.408,32.539,25.029,27.432,25.029z"/>
			<path fill="#FFFFFF" d="M61.142,33.438v8.997c0,0.305-0.196,0.469-0.546,0.469h-1.932c-0.355,0-0.592-0.164-0.592-0.469
				l0.046-8.997V29.27c0-0.119-0.201-0.282-0.355-0.036L50.414,42.12c-0.196,0.314-0.633,0.314-0.784-0.041l-6.928-12.928
				c-0.028-0.036-0.192,0-0.192,0.083l0.355,13.201c0.037,0.305-0.191,0.469-0.546,0.469h-1.608c-0.359,0-0.551-0.164-0.551-0.469
				l0.392-13.051l-0.087-4.874c0-0.314,0.201-0.469,0.556-0.469h2.004c0.232,0,0.505,0.082,0.624,0.319l6.724,13.169
				c0.118,0.15,0.355,0.15,0.438,0l7.106-12.932c0.155-0.278,0.36-0.556,0.788-0.556h1.891c0.428,0,0.588,0.278,0.588,0.592
				L61.142,33.438z"/>
			<path fill="#FFFFFF" d="M87.28,33.438v8.997c0,0.305-0.205,0.469-0.56,0.469h-1.922c-0.355,0-0.583-0.164-0.583-0.469
				l0.036-8.997V29.27c0-0.119-0.2-0.282-0.355-0.036L76.548,42.12c-0.196,0.314-0.628,0.314-0.788-0.041l-6.915-12.928
				c-0.045-0.036-0.196,0-0.196,0.083L69,42.435c0.036,0.305-0.201,0.469-0.542,0.469h-1.626c-0.342,0-0.542-0.164-0.542-0.469
				l0.397-13.051l-0.083-4.874c0-0.314,0.196-0.469,0.551-0.469h2c0.237,0,0.515,0.082,0.633,0.319l6.724,13.169
				c0.114,0.15,0.351,0.15,0.423,0l7.116-12.932c0.164-0.278,0.351-0.556,0.788-0.556h1.882c0.433,0,0.596,0.278,0.596,0.592
				L87.28,33.438z"/>
			<path fill="#FFFFFF" d="M107.105,26.874l-0.264,10.373c-0.119,4.091-2.715,6.172-7.075,6.172c-4.87,0-7.908-2.082-7.977-6.172
				l-0.119-10.65l-0.045-2.086c0-0.314,0.232-0.469,0.592-0.469h2.123c0.36,0,0.587,0.155,0.587,0.469l-0.073,2.086l-0.045,10.418
				c0,2.865,2.246,4.519,5.115,4.519c2.442,0,4.601-1.225,4.56-4.205l-0.123-10.414c0-0.938-0.165-2.241-0.165-2.241
				c0-0.314,0.086-0.633,0.474-0.633h2.086c0.392,0,0.474,0.319,0.474,0.633C107.232,24.673,107.15,25.89,107.105,26.874z"/>
			<path fill="#FFFFFF" d="M127.823,37.838l0.041,4.993c0,0.665-0.825,0.551-1.03,0.351L114.658,28.8
				c-0.114-0.123-0.191-0.036-0.191,0l0.428,13.516c0,0.273-0.073,0.587-0.51,0.587h-1.768c-0.396,0-0.469-0.314-0.469-0.587
				l0.387-13.202l-0.078-4.605c0-0.314,0.237-0.469,0.592-0.469h0.87c0.264,0,0.547,0.119,0.702,0.319l10.764,12.728
				c0.196,0.241,0.438,0.086,0.438-0.073l-0.355-12.381c0-0.273,0.041-0.592,0.469-0.592h1.653c0.397,0,0.474,0.319,0.474,0.592
				L127.823,37.838z"/>
			<path fill="#FFFFFF" d="M135.722,42.904h-2.004c-0.351,0-0.547-0.164-0.547-0.469l0.032-8.96l-0.032-8.965
				c0-0.314,0.196-0.469,0.547-0.469h2.004c0.392,0,0.588,0.155,0.588,0.469l-0.032,8.965l0.032,8.96
				C136.31,42.74,136.114,42.904,135.722,42.904z"/>
			<path fill="#FFFFFF" d="M154.617,25.853c0,0.355-0.273,0.387-0.546,0.387c0,0-3.699-0.387-5.43-0.387
				c-0.196,0-0.356,0.191-0.387,0.469v7.152v8.96c0.031,0.305-0.201,0.469-0.547,0.469h-2.009c-0.351,0-0.542-0.164-0.542-0.469
				v-8.96v-7.189c0-0.241-0.201-0.433-0.401-0.433c-1.726,0-5.42,0.387-5.42,0.387c-0.278,0-0.547-0.032-0.547-0.387l-0.123-1.38
				c-0.036-0.314,0.31-0.433,0.67-0.433h14.737c0.354,0,0.706,0.119,0.669,0.433L154.617,25.853z"/>
			<path fill="#FFFFFF" d="M165.81,34.381c-0.155,0.16-0.232,0.351-0.232,0.587l0.041,7.466c0,0.305-0.191,0.469-0.551,0.469h-2.009
				c-0.351,0-0.583-0.164-0.583-0.469l0.041-6.874c0-0.237-0.082-0.441-0.195-0.592l-7.594-10.372
				c-0.228-0.319-0.119-0.556,0.282-0.556h2.633c0.346,0,0.633,0.155,0.82,0.433l5.858,8.573c0.078,0.073,0.196,0.073,0.232,0
				l5.348-8.687c0.196-0.278,0.396-0.319,0.71-0.319h1.727c0.433,0,0.433,0.319,0.273,0.592L165.81,34.381z"/>
			<path fill="#FFFFFF" d="M194.577,42.904h-12.81c-0.351,0-0.505-0.164-0.505-0.469l0.032-11.32l-0.032-11.32
				c0-0.31,0.155-0.474,0.505-0.474h2.278c0.355,0,0.511,0.164,0.511,0.474l-0.037,11.32l0.037,8.851
				c0,0.505,0.433,0.934,0.956,0.934h3.134c1.959,0,5.932-0.742,5.932-0.742c0.318-0.041,0.592,0.032,0.592,0.355v1.996
				C195.169,42.831,194.896,42.904,194.577,42.904z"/>
			<path fill="#FFFFFF" d="M200.471,42.904h-2.009c-0.35,0-0.546-0.164-0.546-0.469l0.046-8.96l-0.046-8.965
				c0-0.314,0.196-0.469,0.546-0.469h2.009c0.396,0,0.592,0.155,0.592,0.469l-0.041,8.965l0.041,8.96
				C201.063,42.74,200.868,42.904,200.471,42.904z"/>
			<path fill="#FFFFFF" d="M214.265,42.708c-0.082,0.237-0.792,0.387-1.143,0.387c-0.387,0-1.061-0.15-1.139-0.355l-7.193-16.062
				l-0.979-2.082c-0.16-0.36,0.036-0.556,0.396-0.556h2.629c0.355,0,0.597,0.155,0.71,0.433l0.861,2.086l4.993,12.728
				c0.041,0.041,0.278,0.041,0.278,0l5.379-14.814c0.114-0.278,0.273-0.433,0.625-0.433h1.813c0.428,0,0.469,0.351,0.355,0.633
				L214.265,42.708z"/>
			<path fill="#FFFFFF" d="M226.555,42.904h-2.004c-0.351,0-0.547-0.164-0.547-0.469l0.037-8.96l-0.037-8.965
				c0-0.314,0.196-0.469,0.547-0.469h2.004c0.392,0,0.592,0.155,0.592,0.469l-0.041,8.965l0.041,8.96
				C227.147,42.74,226.947,42.904,226.555,42.904z"/>
			<path fill="#FFFFFF" d="M247.938,37.838l0.036,4.993c0,0.665-0.829,0.551-1.025,0.351L234.773,28.8c-0.118-0.123-0.2-0.036-0.2,0
				l0.442,13.516c0,0.273-0.086,0.587-0.519,0.587h-1.768c-0.396,0-0.473-0.314-0.473-0.587l0.392-13.202l-0.074-4.605
				c0-0.314,0.232-0.469,0.588-0.469h0.865c0.278,0,0.547,0.119,0.707,0.319l10.769,12.728c0.196,0.241,0.433,0.086,0.433-0.073
				l-0.351-12.381c0-0.273,0.041-0.592,0.469-0.592h1.649c0.387,0,0.474,0.319,0.474,0.592L247.938,37.838z"/>
			<path fill="#FFFFFF" d="M268.446,42.981c-0.346,0-1.216-0.743-1.334-0.829c-0.192-0.114-0.273-0.114-0.474,0
				c-1.33,0.633-3.293,1.148-5.102,1.148c-4.487,0-9.047-2.519-9.047-9.79c0-5.931,4.173-9.471,8.965-9.471h5.58
				c0.278,0,0.588,0.082,0.546,0.433l-0.236,1.768c-0.032,0.355-0.31,0.515-0.67,0.438c-0.82-0.232-1.49-0.469-2.228-0.633
				c-0.797-0.155-1.699-0.232-3.029-0.232c-3.421,0-5.421,2.596-5.421,7.698c0,6.013,2.983,7.977,6.601,7.977
				c1.599,0,3.535-1.016,3.535-1.922c0-0.278-0.351-5.143-0.351-5.143c0-0.041-0.083-0.633-0.083-0.751
				c0-0.31,0.273-0.551,0.583-0.551h2.359c0.201,0,0.401,0.123,0.401,0.355v9.001C269.043,42.785,268.761,42.981,268.446,42.981z"/>
		</g>
		<g>
			<path fill="#FFFFFF" d="M309.189,32.787c0.46,0.027,0.57-0.228,0.236-0.551l-8.063-7.863c-0.328-0.319-0.965-0.469-1.412-0.333
				l-22.234,7.065c-0.447,0.141-0.429,0.278,0.036,0.301L309.189,32.787z"/>
			<path fill="#FFFFFF" d="M276.573,0.202c-0.337-0.324-0.779-0.25-0.993,0.164l-8.983,17.575c-0.214,0.414-0.392,0.906-0.392,1.102
				c0,0.191,0.296,0.123,0.656-0.168l15.174-12.181c0.364-0.291,0.382-0.792,0.059-1.116L276.573,0.202z"/>
			<path fill="#FFFFFF" d="M290.029,14.406c0.442-0.173,0.529-0.574,0.187-0.893l-6.396-6.241c-0.333-0.319-0.83-0.287-1.112,0.082
				l-9.99,13.247c-0.273,0.374-0.146,0.542,0.283,0.374L290.029,14.406z"/>
			<path fill="#FFFFFF" d="M299.236,23.22c0.46-0.055,0.564-0.364,0.228-0.688l-7.262-7.079c-0.323-0.323-0.916-0.378-1.293-0.123
				l-15.424,10.245c-0.387,0.251-0.314,0.424,0.132,0.365L299.236,23.22z"/>
		</g>
		<g>
			<path fill="#FFFFFF" d="M309.189,33.652c0.46-0.027,0.57,0.219,0.236,0.551l-8.063,7.863c-0.328,0.319-0.965,0.469-1.412,0.328
				l-22.234-7.061c-0.447-0.15-0.429-0.273,0.036-0.292L309.189,33.652z"/>
			<path fill="#FFFFFF" d="M276.573,66.245c-0.337,0.314-0.779,0.242-0.993-0.173l-8.983-17.574
				c-0.214-0.415-0.392-0.907-0.392-1.107c0-0.187,0.296-0.114,0.656,0.173l15.174,12.181c0.364,0.287,0.382,0.793,0.059,1.112
				L276.573,66.245z"/>
			<path fill="#FFFFFF" d="M290.029,52.033c0.442,0.173,0.529,0.574,0.187,0.893l-6.396,6.245c-0.333,0.315-0.83,0.283-1.112-0.091
				l-9.99-13.242c-0.273-0.374-0.146-0.533,0.283-0.374L290.029,52.033z"/>
			<path fill="#FFFFFF" d="M299.236,43.228c0.46,0.045,0.564,0.355,0.228,0.683l-7.262,7.083c-0.323,0.319-0.916,0.374-1.293,0.119
				l-15.424-10.245c-0.387-0.26-0.314-0.428,0.132-0.378L299.236,43.228z"/>
		</g>
	</g>
	<g>
		<path fill="#FFFFFF" d="M5.594,61.959c-1.822,0-2.897-0.41-3.858-0.807c-0.132-0.059-0.159-0.214-0.114-0.333l0.337-1.211
			c0.027-0.155,0.21-0.155,0.324-0.019c0.806,0.838,1.973,1.444,3.462,1.444c1.357,0,2.491-0.861,2.491-1.991
			c0-3.093-6.573-2.355-6.573-6.245c0-1.973,1.403-3.107,3.362-3.107c1.763,0,2.957,0.292,3.854,0.355
			c0.141,0,0.178,0.132,0.141,0.25l-0.242,1.189c-0.018,0.141-0.177,0.182-0.314,0.104c-0.802-0.469-1.854-1.002-3.48-1.002
			c-1.098,0-1.895,0.592-1.895,1.508c0,3.147,6.592,2.132,6.592,6.532C9.68,61.034,7.776,61.959,5.594,61.959z"/>
		<path fill="#FFFFFF" d="M17.834,61.576l-0.364-0.382c-0.164-0.174-0.46-0.16-0.651-0.018c-0.71,0.459-1.562,0.756-2.501,0.756
			c-1.371,0-2.451-0.738-2.451-2.127c0-0.725,0.374-1.567,1.357-1.995c0.715-0.314,1.835-0.447,2.751-0.725
			c0.569-0.178,1.002-0.41,1.002-1.002V55.7c0-1.057-0.574-1.453-1.189-1.453c-0.824,0-1.827,0.218-2.564,0.552
			c-0.141,0.059-0.264-0.023-0.278-0.174L12.855,53.7c-0.032-0.164,0.104-0.191,0.264-0.191h2.843c1.439,0,2.423,0.897,2.423,2.838
			v5.175C18.385,61.872,17.976,61.717,17.834,61.576z M16.978,57.75c0-0.123-0.06-0.178-0.178-0.178
			c-0.041,0-2.369,0.707-2.565,0.766c-0.605,0.196-0.998,0.583-0.998,1.134c0,1.016,0.433,1.722,1.562,1.722
			c1.221,0,2.178-0.629,2.178-1.49V57.75z"/>
		<path fill="#FFFFFF" d="M26.298,54.657c-0.009,0.16-0.128,0.237-0.269,0.173c-0.337-0.15-0.683-0.305-1.362-0.305
			c-0.747,0-1.43,0.415-1.745,1.175v5.785c0,0.15-0.1,0.232-0.273,0.232h-0.889c-0.177,0-0.246-0.082-0.246-0.232v-7.744
			c0-0.155,0.069-0.232,0.246-0.232h0.515c0.177,0,0.26,0.091,0.314,0.232l0.287,0.678c0.045,0.082,0.1,0.119,0.2,0.045
			c0.72-0.71,1.367-0.956,2.119-0.956h0.911c0.165,0,0.301,0.027,0.283,0.191L26.298,54.657z"/>
		<path fill="#FFFFFF" d="M34.908,61.717h-0.879c-0.173,0-0.274-0.082-0.274-0.232v-5.338c0-1.139-0.688-1.758-1.822-1.758
			c-0.742,0-2.127,0.565-2.127,1.49v5.607c0,0.15-0.096,0.232-0.282,0.232h-0.871c-0.182,0-0.259-0.082-0.259-0.232v-7.744
			c0-0.155,0.078-0.232,0.259-0.232h0.506c0.178,0,0.259,0.091,0.31,0.232l0.291,0.678c0.046,0.082,0.114,0.142,0.205,0.045
			c0.665-0.879,1.695-1.12,2.442-1.12c1.622,0,2.756,1.102,2.756,3.111v5.029C35.163,61.635,35.085,61.717,34.908,61.717z"/>
		<path fill="#FFFFFF" d="M39.107,51.313c-0.442,0-0.82-0.31-0.82-0.765c0-0.587,0.556-1.047,1.121-1.047
			c0.456,0,0.816,0.305,0.816,0.756C40.224,50.849,39.682,51.313,39.107,51.313z M40.853,61.717h-0.342
			c-1.208,0-1.945-0.501-1.945-2.246v-5.73c0-0.155,0.073-0.232,0.246-0.232h0.907c0.173,0,0.255,0.077,0.255,0.232v6.231
			c0,0.789,0.415,1.162,0.879,1.162c0.113,0,0.159,0,0.159,0.137v0.292C41.012,61.699,40.994,61.717,40.853,61.717z"/>
		<path fill="#FFFFFF" d="M48.934,61.576l-0.374-0.382c-0.16-0.174-0.456-0.16-0.647-0.018c-0.702,0.459-1.558,0.756-2.496,0.756
			c-1.376,0-2.451-0.738-2.451-2.127c0-0.725,0.374-1.567,1.349-1.995c0.733-0.314,1.84-0.447,2.761-0.725
			c0.56-0.178,1.001-0.41,1.001-1.002V55.7c0-1.057-0.574-1.453-1.198-1.453c-0.82,0-1.817,0.218-2.564,0.552
			c-0.137,0.059-0.255-0.023-0.273-0.174L43.945,53.7c-0.018-0.164,0.114-0.191,0.273-0.191h2.838c1.448,0,2.423,0.897,2.423,2.838
			v5.175C49.48,61.872,49.065,61.717,48.934,61.576z M48.077,57.75c0-0.123-0.059-0.178-0.177-0.178
			c-0.036,0-2.369,0.707-2.561,0.766c-0.614,0.196-1.006,0.583-1.006,1.134c0,1.016,0.433,1.722,1.571,1.722
			c1.208,0,2.173-0.629,2.173-1.49V57.75z"/>
		<path fill="#FFFFFF" d="M54.172,57.927c0,0-0.747-0.041-1.234-0.041c-0.482,0-1.23,0.041-1.23,0.041
			c-0.118,0-0.201-0.1-0.201-0.196v-0.778c0-0.119,0.083-0.205,0.201-0.205c0,0,0.748,0.041,1.23,0.041
			c0.488,0,1.234-0.041,1.234-0.041c0.124,0,0.191,0.086,0.191,0.205v0.778C54.363,57.827,54.295,57.927,54.172,57.927z"/>
		<path fill="#FFFFFF" d="M63.616,61.717h-6.374c-0.173,0-0.255-0.082-0.255-0.232l0.014-5.634l-0.014-5.63
			c0-0.16,0.082-0.237,0.255-0.237h1.13c0.173,0,0.26,0.078,0.26,0.237l-0.023,5.63l0.023,4.404c0,0.247,0.209,0.47,0.469,0.47
			h1.567c0.975,0,2.948-0.374,2.948-0.374c0.154-0.023,0.287,0.018,0.287,0.178v0.993C63.902,61.677,63.77,61.717,63.616,61.717z"/>
		<path fill="#FFFFFF" d="M71.533,61.576l-0.365-0.382c-0.154-0.174-0.46-0.16-0.646-0.018c-0.71,0.459-1.567,0.756-2.505,0.756
			c-1.376,0-2.442-0.738-2.442-2.127c0-0.725,0.364-1.567,1.348-1.995c0.725-0.314,1.836-0.447,2.751-0.725
			c0.574-0.178,1.002-0.41,1.002-1.002V55.7c0-1.057-0.56-1.453-1.189-1.453c-0.825,0-1.827,0.218-2.565,0.552
			c-0.132,0.059-0.255-0.023-0.282-0.174L66.549,53.7c-0.022-0.164,0.119-0.191,0.273-0.191h2.838c1.439,0,2.428,0.897,2.428,2.838
			v5.175C72.088,61.872,71.674,61.717,71.533,61.576z M70.676,57.75c0-0.123-0.06-0.178-0.178-0.178
			c-0.041,0-2.368,0.707-2.56,0.766c-0.611,0.196-0.998,0.583-0.998,1.134c0,1.016,0.429,1.722,1.562,1.722
			c1.212,0,2.173-0.629,2.173-1.49V57.75z"/>
		<path fill="#FFFFFF" d="M86.542,61.717h-0.938c-0.183,0-0.241-0.082-0.241-0.232v-5.338c0-1.139-0.542-1.758-1.681-1.758
			c-0.738,0-1.986,0.738-1.986,1.667v5.429c0,0.15-0.063,0.232-0.241,0.232h-0.938c-0.173,0-0.232-0.082-0.232-0.232v-5.338
			c0-1.139-0.533-1.758-1.667-1.758c-0.765,0-1.995,0.565-1.995,1.49v5.607c0,0.15-0.077,0.232-0.246,0.232H75.45
			c-0.173,0-0.237-0.082-0.237-0.232v-7.744c0-0.155,0.077-0.232,0.237-0.232h0.528c0.173,0,0.255,0.091,0.31,0.232l0.296,0.678
			c0.036,0.082,0.118,0.142,0.191,0.045c0.665-0.879,1.567-1.12,2.291-1.12c1.23,0,2.114,0.587,2.446,1.762
			c0.355-1.039,1.444-1.762,2.638-1.762c1.626,0,2.624,1.102,2.624,3.111v5.029C86.775,61.635,86.702,61.717,86.542,61.717z"/>
		<path fill="#FFFFFF" d="M93.489,61.841c-1.549,0-1.868-0.378-2.414-0.378c-0.151,0-0.392,0-0.51,0.114
			c-0.137,0.141-0.56,0.296-0.56-0.055V49.637c0-0.165,0.095-0.237,0.273-0.237h0.875c0.183,0,0.264,0.073,0.264,0.237v4.697
			c0,0.15,0.146,0.086,0.205,0.027c0.647-0.674,1.335-0.975,2.073-0.975c1.786,0,3.371,1.139,3.371,4.282
			C97.065,60.255,95.435,61.841,93.489,61.841z M93.384,54.388c-0.665,0-1.585,0.505-1.968,1.348v3.403
			c0,1.348,0.465,2.013,1.986,2.013c1.348,0,2.168-1.289,2.168-3.485C95.571,55.107,94.519,54.388,93.384,54.388z"/>
		<path fill="#FFFFFF" d="M104.24,54.501l-2.487-0.037v5.508c0,0.789,0.411,1.162,0.879,1.162h0.492c0.109,0,0.155,0,0.155,0.137
			v0.292c0,0.137-0.014,0.155-0.155,0.155h-0.843c-1.194,0-1.932-0.501-1.932-2.246v-5.007h-1.722c-0.105,0-0.196-0.077-0.196-0.177
			c0-0.105-0.022-0.465,0-0.588c0.018-0.1,0.078-0.191,0.196-0.191h1.722v-1.822c0-0.06,0-0.123,0.06-0.136l1.029-0.456
			c0.219-0.091,0.341-0.091,0.341,0.142v2.273h2.46c0.1,0,0.196,0.018,0.196,0.132v0.692
			C104.436,54.447,104.34,54.501,104.24,54.501z"/>
		<path fill="#FFFFFF" d="M109.67,61.959c-2.109,0-3.776-1.75-3.776-4.373c0-2.62,1.667-4.314,3.776-4.314
			c2.095,0,3.781,1.694,3.781,4.314C113.451,60.209,111.765,61.959,109.67,61.959z M109.61,54.092c-1.776,0-2.182,1.786-2.182,3.243
			c0,1.472,0.365,3.922,2.305,3.922c1.776,0,2.173-1.981,2.173-3.39C111.907,56.365,111.556,54.092,109.61,54.092z"/>
		<path fill="#FFFFFF" d="M122.507,61.717h-0.879c-0.177,0-0.278-0.082-0.278-0.232v-5.338c0-1.139-0.683-1.758-1.817-1.758
			c-0.743,0-2.132,0.565-2.132,1.49v5.607c0,0.15-0.101,0.232-0.278,0.232h-0.875c-0.173,0-0.255-0.082-0.255-0.232v-7.744
			c0-0.155,0.082-0.232,0.255-0.232h0.506c0.177,0,0.25,0.091,0.309,0.232l0.296,0.678c0.041,0.082,0.114,0.142,0.2,0.045
			c0.665-0.879,1.7-1.12,2.442-1.12c1.626,0,2.761,1.102,2.761,3.111v5.029C122.762,61.635,122.685,61.717,122.507,61.717z"/>
	</g>
	<g>
		<path fill="#FFFFFF" d="M129.832,82.071l-1.148,5.238c-0.027,0.15-0.123,0.229-0.282,0.229h-1.052
			c-0.169,0-0.224-0.078-0.187-0.229l1.184-5.238l1.125-5.234c0.032-0.142,0.132-0.214,0.287-0.214h1.057
			c0.164,0,0.218,0.073,0.173,0.214L129.832,82.071z"/>
		<path fill="#FFFFFF" d="M139.257,86.098c-0.109,0.451-0.096,1.211-0.096,1.211c0,0.15-0.064,0.229-0.237,0.229h-0.852
			c-0.15,0-0.2-0.078-0.178-0.229c0,0,0.009-0.82,0.119-1.266c0.219-0.889,0.697-2.533,0.934-3.476
			c0.265-1.18,0.155-2.141-0.291-2.141c-1.59,0-3.64,3.849-4,5.393l-0.428,1.7c0,0.019-0.055,0.155-0.137,0.123l-0.934-0.255
			c-0.123-0.036-0.155-0.036-0.123-0.255l1.308-5.434c0.15-0.615,0.223-1.257,0.177-1.585c-0.018-0.146,0.096-0.21,0.265-0.21h0.875
			c0.16,0,0.219,0.063,0.219,0.21c-0.019,0.4-0.083,0.874-0.26,1.585l-0.109,0.459c-0.05,0.178,0.164,0.224,0.255,0.064
			c0.883-1.471,2.086-2.433,3.147-2.433c1.153,0,1.686,1.212,1.339,2.702C140.013,83.438,139.453,85.241,139.257,86.098z"/>
		<path fill="#FFFFFF" d="M149.342,81.201c-0.091,0.169-0.218,0.169-0.305,0.082c-0.565-0.569-1.257-0.825-2.205-0.825
			c-0.633,0-1.38,0.292-1.54,1.002c-0.423,1.685,4.415,1.193,3.745,3.981c-0.415,1.704-2.004,2.329-3.507,2.329
			c-1.535,0-2.241-0.333-2.697-0.565c-0.068-0.037-0.068-0.146-0.041-0.219l0.533-0.961c0.068-0.132,0.242-0.132,0.292-0.036
			c0.488,0.765,1.253,1.088,2.055,1.088c0.719,0,1.891-0.423,2.109-1.289c0.237-0.97-0.82-1.294-1.877-1.681
			c-1.048-0.392-2.086-0.921-1.771-2.191c0.336-1.403,1.503-2.168,2.865-2.168c1.512,0,2.273,0.26,2.765,0.346
			c0.091,0.019,0.127,0.1,0.068,0.182L149.342,81.201z"/>
		<path fill="#FFFFFF" d="M155.164,87.751c-0.569,0-1.071-0.165-1.431-0.415c-0.095-0.059-0.209-0.041-0.223,0.05l-0.478,1.927
			c-0.169,0.619-0.191,1.257-0.169,1.581c0,0.15-0.086,0.223-0.246,0.223h-0.875c-0.168,0-0.214-0.073-0.214-0.223
			c0.018-0.396,0.073-0.87,0.25-1.581l1.818-7.617c0.146-0.615,0.223-1.257,0.182-1.585c-0.019-0.146,0.091-0.21,0.255-0.21h0.87
			c0.164,0,0.219,0.063,0.219,0.21c-0.018,0.273-0.018,0.619-0.109,0.998c-0.027,0.131,0.109,0.131,0.223,0
			c0.943-1.089,2.054-1.308,2.456-1.308c1.38,0,2.779,0.724,2.031,3.858C159.15,86.057,157.068,87.751,155.164,87.751z
			 M157.291,80.695c-1.257,0-2.569,1.685-2.888,3.052l-0.369,1.494c-0.232,1.043,0.31,1.872,1.276,1.872
			c1.312,0,2.542-1.43,3.033-3.453C158.677,82.294,158.594,80.695,157.291,80.695z"/>
		<path fill="#FFFFFF" d="M165.559,81.333l-1.098,4.583c-0.196,0.725,0.137,1.07,0.569,1.07c0.1,0,0.15,0,0.114,0.127l-0.073,0.273
			c-0.019,0.132-0.051,0.151-0.182,0.151h-0.333c-1.083,0-1.685-0.479-1.302-2.096l1.001-4.108c0.105-0.456,0.256-1.221,0.256-1.221
			c0.018-0.146,0.127-0.21,0.287-0.21h0.915c0.155,0,0.21,0.063,0.178,0.21C165.892,80.112,165.668,80.877,165.559,81.333z
			 M165.601,77.866c-0.419,0-0.692-0.296-0.579-0.711c0.124-0.555,0.743-0.988,1.267-0.988c0.415,0,0.692,0.292,0.583,0.71
			C166.744,77.42,166.129,77.866,165.601,77.866z"/>
		<path fill="#FFFFFF" d="M174.324,81.292c-0.05,0.078-0.137,0.151-0.209,0.151c-0.096,0-0.583-0.201-1.021-0.201
			c-0.747,0-2.186,1.904-2.842,4.638l-0.401,1.64c0,0.019-0.05,0.155-0.137,0.123l-0.934-0.255c-0.128-0.036-0.16-0.036-0.128-0.255
			l1.308-5.434c0.146-0.615,0.228-1.257,0.182-1.585c-0.013-0.146,0.096-0.21,0.251-0.21h0.879c0.164,0,0.224,0.063,0.224,0.21
			c-0.027,0.4,0.032,0.565-0.132,1.275l-0.104,0.391c-0.023,0.137,0.123,0.192,0.195,0.083c0.183-0.259,0.333-0.46,0.493-0.661
			c0.692-0.907,1.525-1.412,2.396-1.412c0.242,0,0.442,0.068,0.51,0.2c0.055,0.091,0.073,0.205,0.019,0.305L174.324,81.292z"/>
		<path fill="#FFFFFF" d="M179.234,81.333l-1.111,4.583c-0.177,0.725,0.146,1.07,0.588,1.07c0.086,0,0.146,0,0.109,0.127
			l-0.078,0.273c-0.018,0.132-0.045,0.151-0.178,0.151h-0.328c-1.088,0-1.69-0.479-1.303-2.096l0.998-4.108
			c0.1-0.456,0.25-1.221,0.25-1.221c0.022-0.146,0.127-0.21,0.292-0.21h0.902c0.173,0,0.228,0.063,0.187,0.21
			C179.562,80.112,179.344,80.877,179.234,81.333z M179.276,77.866c-0.419,0-0.693-0.296-0.579-0.711
			c0.123-0.555,0.739-0.988,1.271-0.988c0.414,0,0.683,0.292,0.578,0.71C180.419,77.42,179.795,77.866,179.276,77.866z"/>
		<path fill="#FFFFFF" d="M188.818,86.098c-0.104,0.451-0.086,1.211-0.086,1.211c0,0.15-0.078,0.229-0.241,0.229h-0.852
			c-0.151,0-0.205-0.078-0.178-0.229c0,0,0.014-0.82,0.123-1.266c0.214-0.889,0.688-2.533,0.925-3.476
			c0.273-1.18,0.16-2.141-0.292-2.141c-1.581,0-3.64,3.849-4,5.393l-0.418,1.7c0,0.019-0.05,0.155-0.137,0.123l-0.934-0.255
			c-0.127-0.036-0.168-0.036-0.127-0.255l1.308-5.434c0.155-0.615,0.223-1.257,0.186-1.585c-0.018-0.146,0.091-0.21,0.26-0.21h0.866
			c0.16,0,0.219,0.063,0.219,0.21c-0.018,0.4-0.073,0.874-0.255,1.585l-0.109,0.459c-0.05,0.178,0.159,0.224,0.259,0.064
			c0.888-1.471,2.087-2.433,3.139-2.433c1.162,0,1.69,1.212,1.349,2.702C189.58,83.438,189.024,85.241,188.818,86.098z"/>
		<path fill="#FFFFFF" d="M198.791,88.817c-0.478,1.964-1.531,2.715-2.916,2.715h-1.599c-0.168,0-0.314-0.036-0.236-0.182
			l0.328-0.656c0.073-0.137,0.183-0.218,0.31-0.164c0,0,0.715,0.401,1.161,0.401c0.675,0,1.308-0.707,1.567-1.722l0.797-3.344
			c0.019-0.114-0.091-0.173-0.15-0.059c-0.729,1.112-1.813,1.868-2.87,1.868c-1.38,0-2.742-0.811-1.963-3.85
			c0.624-2.382,2.697-4.095,4.51-4.095c2.76,0,2.491,3.125,1.977,5.252L198.791,88.817z M197.638,80.372
			c-1.239,0-2.514,1.434-3.034,3.452c-0.351,1.357-0.31,2.957,0.979,2.957c1.275,0,2.56-1.685,2.892-3.052l0.182-0.761
			C198.996,81.533,198.604,80.372,197.638,80.372z"/>
		<path fill="#FFFFFF" d="M212.061,82.881h-1.162c-0.168,0-0.383,0.142-0.424,0.305l-0.892,4.123
			c-0.037,0.15-0.127,0.229-0.292,0.229h-1.052c-0.155,0-0.218-0.078-0.182-0.229l1.185-5.238l1.125-5.234
			c0.041-0.142,0.132-0.214,0.291-0.214h3.567c1.84,0,3.489,0.82,2.998,3.038C216.821,81.479,215.058,82.881,212.061,82.881z
			 M213.227,77.347h-1.006c-0.237,0-0.488,0.187-0.542,0.418l-0.911,4.096c-0.036,0.159,0.114,0.324,0.292,0.324h0.911
			c1.69,0,3.175-0.488,3.654-2.579C215.964,78.062,215.276,77.347,213.227,77.347z"/>
		<path fill="#FFFFFF" d="M221.562,87.751c-1.881,0-2.998-1.622-2.418-4.06c0.583-2.433,2.46-4.017,4.35-4.017
			c1.909,0,3.039,1.584,2.451,4.017C225.371,86.13,223.476,87.751,221.562,87.751z M223.203,80.44
			c-1.344,0.06-2.273,1.257-2.692,3.33c-0.419,2.049,0,3.361,1.33,3.33c1.344-0.055,2.309-1.408,2.729-3.454
			C224.979,81.575,224.533,80.403,223.203,80.44z"/>
		<path fill="#FFFFFF" d="M234.696,81.201c-0.086,0.169-0.218,0.169-0.31,0.082c-0.56-0.569-1.252-0.825-2.2-0.825
			c-0.638,0-1.375,0.292-1.553,1.002c-0.41,1.685,4.423,1.193,3.753,3.981c-0.423,1.704-1.995,2.329-3.508,2.329
			c-1.525,0-2.231-0.333-2.691-0.565c-0.073-0.037-0.073-0.146-0.042-0.219l0.534-0.961c0.077-0.132,0.232-0.132,0.287-0.036
			c0.492,0.765,1.257,1.088,2.059,1.088c0.725,0,1.886-0.423,2.109-1.289c0.236-0.97-0.821-1.294-1.873-1.681
			c-1.052-0.392-2.091-0.921-1.781-2.191c0.347-1.403,1.508-2.168,2.875-2.168c1.499,0,2.264,0.26,2.756,0.346
			c0.095,0.019,0.123,0.1,0.082,0.182L234.696,81.201z"/>
		<path fill="#FFFFFF" d="M243.748,81.201c-0.087,0.169-0.21,0.169-0.31,0.082c-0.555-0.569-1.252-0.825-2.195-0.825
			c-0.638,0-1.381,0.292-1.549,1.002c-0.415,1.685,4.415,1.193,3.745,3.981c-0.415,1.704-1.986,2.329-3.507,2.329
			c-1.522,0-2.237-0.333-2.683-0.565c-0.073-0.037-0.073-0.146-0.046-0.219l0.533-0.961c0.073-0.132,0.232-0.132,0.291-0.036
			c0.488,0.765,1.253,1.088,2.06,1.088c0.72,0,1.876-0.423,2.1-1.289c0.246-0.97-0.815-1.294-1.868-1.681
			c-1.057-0.392-2.091-0.921-1.781-2.191c0.337-1.403,1.503-2.168,2.865-2.168c1.513,0,2.283,0.26,2.77,0.346
			c0.091,0.019,0.123,0.1,0.068,0.182L243.748,81.201z"/>
		<path fill="#FFFFFF" d="M249.714,81.333l-1.116,4.583c-0.173,0.725,0.155,1.07,0.592,1.07c0.087,0,0.146,0,0.1,0.127l-0.068,0.273
			c-0.018,0.132-0.05,0.151-0.178,0.151h-0.333c-1.094,0-1.691-0.479-1.303-2.096l0.988-4.108c0.109-0.456,0.264-1.221,0.264-1.221
			c0.019-0.146,0.124-0.21,0.296-0.21h0.902c0.168,0,0.213,0.063,0.182,0.21C250.043,80.112,249.824,80.877,249.714,81.333z
			 M249.751,77.866c-0.415,0-0.697-0.296-0.578-0.711c0.118-0.555,0.747-0.988,1.275-0.988c0.405,0,0.683,0.292,0.574,0.71
			C250.899,77.42,250.275,77.866,249.751,77.866z"/>
		<path fill="#FFFFFF" d="M255.573,87.642c-0.656,0-1.117-0.205-1.531-0.624c-0.059-0.032-0.123-0.073-0.2-0.073
			c-0.309,0-0.551,0.333-0.838,0.551c-0.142,0.118-0.47,0.178-0.401-0.146l2.273-9.475c0.141-0.62,0.201-1.253,0.168-1.581
			c-0.027-0.146,0.087-0.214,0.255-0.214h0.875c0.155,0,0.232,0.068,0.205,0.214c-0.008,0.4-0.05,0.875-0.228,1.581l-0.747,3.093
			c-0.009,0.127,0.146,0.16,0.255,0.032c0.948-1.071,2.018-1.303,2.419-1.303c1.38,0,2.765,0.815,2.036,3.854
			C259.545,85.952,257.482,87.642,255.573,87.642z M257.677,80.586c-1.257,0-2.564,1.69-2.888,3.061l-0.341,1.49
			c-0.265,1.034,0.291,1.868,1.252,1.868c1.308,0,2.533-1.43,3.034-3.453C259.058,82.185,258.989,80.586,257.677,80.586z"/>
		<path fill="#FFFFFF" d="M265.736,81.333l-1.107,4.583c-0.183,0.725,0.146,1.07,0.573,1.07c0.096,0,0.155,0,0.11,0.127
			l-0.068,0.273c-0.018,0.132-0.06,0.151-0.178,0.151h-0.337c-1.093,0-1.69-0.479-1.312-2.096l1.007-4.108
			c0.11-0.456,0.26-1.221,0.26-1.221c0.013-0.146,0.123-0.21,0.287-0.21h0.911c0.164,0,0.214,0.063,0.182,0.21
			C266.064,80.112,265.845,80.877,265.736,81.333z M265.772,77.866c-0.415,0-0.697-0.296-0.588-0.711
			c0.128-0.555,0.757-0.988,1.271-0.988c0.419,0,0.692,0.292,0.587,0.71C266.916,77.42,266.301,77.866,265.772,77.866z"/>
		<path fill="#FFFFFF" d="M272.337,77.516l-2.019,8.4c-0.164,0.725,0.109,1.07,0.538,1.07c0.109,0,0.154,0,0.132,0.127l-0.073,0.273
			c-0.032,0.132-0.059,0.151-0.183,0.151h-0.323c-1.116,0-1.681-0.479-1.275-2.096l1.909-7.949c0.095-0.451,0.068-1.198,0.068-1.198
			c0.027-0.146,0.132-0.214,0.296-0.214h0.906c0.165,0,0.201,0.068,0.187,0.214C272.5,76.295,272.464,77.019,272.337,77.516z"/>
		<path fill="#FFFFFF" d="M277.516,81.333l-1.111,4.583c-0.183,0.725,0.15,1.07,0.587,1.07c0.091,0,0.146,0,0.105,0.127
			l-0.069,0.273c-0.022,0.132-0.05,0.151-0.182,0.151h-0.333c-1.084,0-1.686-0.479-1.307-2.096l1.001-4.108
			c0.105-0.456,0.256-1.221,0.256-1.221c0.018-0.146,0.123-0.21,0.291-0.21h0.907c0.164,0,0.214,0.063,0.187,0.21
			C277.849,80.112,277.625,80.877,277.516,81.333z M277.562,77.866c-0.424,0-0.697-0.296-0.583-0.711
			c0.119-0.555,0.738-0.988,1.267-0.988c0.415,0,0.692,0.292,0.583,0.71C278.7,77.42,278.076,77.866,277.562,77.866z"/>
		<path fill="#FFFFFF" d="M286.718,80.663c-0.037,0.1-0.146,0.155-0.219,0.155l-2.305-0.027l-1.243,5.125
			c-0.178,0.725,0.127,1.07,0.574,1.07h0.446c0.091,0,0.146,0,0.109,0.127l-0.06,0.273c-0.023,0.132-0.068,0.151-0.178,0.151h-0.779
			c-1.111,0-1.685-0.479-1.307-2.096l1.125-4.651h-1.599c-0.087,0-0.168-0.077-0.146-0.168c0.018-0.096,0.087-0.429,0.127-0.542
			c0.05-0.091,0.127-0.178,0.232-0.178h1.603l0.397-1.699c0.027-0.018,0.077-0.127,0.095-0.127l1.075-0.415
			c0.196-0.091,0.314-0.091,0.264,0.119l-0.505,2.123h2.292c0.091,0,0.182,0.014,0.141,0.118L286.718,80.663z"/>
		<path fill="#FFFFFF" d="M291.301,81.333l-1.107,4.583c-0.182,0.725,0.141,1.07,0.574,1.07c0.096,0,0.151,0,0.114,0.127
			l-0.068,0.273c-0.023,0.132-0.055,0.151-0.183,0.151h-0.337c-1.089,0-1.686-0.479-1.308-2.096l0.998-4.108
			c0.114-0.456,0.255-1.221,0.255-1.221c0.022-0.146,0.137-0.21,0.292-0.21h0.916c0.155,0,0.214,0.063,0.182,0.21
			C291.628,80.112,291.41,80.877,291.301,81.333z M291.337,77.866c-0.419,0-0.697-0.296-0.578-0.711
			c0.123-0.555,0.746-0.988,1.266-0.988c0.415,0,0.693,0.292,0.583,0.71C292.485,77.42,291.866,77.866,291.337,77.866z"/>
		<path fill="#FFFFFF" d="M296.011,85.374c0.032,0.961,0.456,1.612,1.303,1.612c0.824,0,1.64-0.497,2.241-1.18l0.146-0.168
			c0.037-0.059,0.128-0.105,0.183-0.064l0.382,0.342c0.055,0.036,0.037,0.091-0.022,0.141c-0.725,0.911-1.791,1.585-3.144,1.585
			c-1.841,0-2.911-1.512-2.337-3.913c0.497-2.073,2.438-3.958,4.278-3.958c1.544,0,2.387,0.729,2.004,2.273
			C300.703,83.46,298.662,84.873,296.011,85.374z M298.903,80.403c-1.252,0-2.187,1.33-2.688,3.326
			c-0.086,0.35-0.137,0.674-0.173,0.989c1.94-0.392,3.484-1.385,3.84-2.802C300.116,80.986,299.737,80.403,298.903,80.403z"/>
		<path fill="#FFFFFF" d="M309.485,81.201c-0.091,0.169-0.218,0.169-0.31,0.082c-0.56-0.569-1.257-0.825-2.205-0.825
			c-0.642,0-1.38,0.292-1.549,1.002c-0.415,1.685,4.423,1.193,3.753,3.981c-0.423,1.704-2.008,2.329-3.512,2.329
			c-1.525,0-2.231-0.333-2.696-0.565c-0.068-0.037-0.068-0.146-0.037-0.219l0.533-0.961c0.078-0.132,0.242-0.132,0.287-0.036
			c0.487,0.765,1.257,1.088,2.06,1.088c0.724,0,1.886-0.423,2.108-1.289c0.237-0.97-0.82-1.294-1.868-1.681
			c-1.061-0.392-2.095-0.921-1.785-2.191c0.346-1.403,1.503-2.168,2.87-2.168c1.508,0,2.273,0.26,2.761,0.346
			c0.095,0.019,0.132,0.1,0.082,0.182L309.485,81.201z"/>
	</g>
</g>
</svg>
