<?xml version="1.0" encoding="utf-8"?>
<!-- Generator: Adobe Illustrator 16.0.0, SVG Export Plug-In . SVG Version: 6.00 Build 0)  -->
<!DOCTYPE svg PUBLIC "-//W3C//DTD SVG 1.1//EN" "http://www.w3.org/Graphics/SVG/1.1/DTD/svg11.dtd">
<svg version="1.1" id="Layer_1" xmlns="http://www.w3.org/2000/svg" xmlns:xlink="http://www.w3.org/1999/xlink" x="0px" y="0px"
	 width="20px" height="20px" viewBox="5 5 20 20" enable-background="new 5 5 20 20" xml:space="preserve">
<g>
	<path fill="#0099CC" d="M15,6.802c2.67,0,2.986,0.011,4.041,0.06c0.975,0.043,1.505,0.207,1.857,0.344
		c0.466,0.181,0.8,0.398,1.149,0.748c0.351,0.35,0.566,0.683,0.748,1.151c0.137,0.352,0.299,0.881,0.345,1.856
		c0.049,1.054,0.058,1.372,0.058,4.042c0,2.669-0.01,2.986-0.058,4.04c-0.044,0.976-0.208,1.505-0.345,1.857
		c-0.182,0.468-0.397,0.8-0.748,1.151c-0.35,0.349-0.683,0.566-1.149,0.747c-0.353,0.136-0.883,0.3-1.857,0.344
		C17.986,23.191,17.67,23.2,15,23.2c-2.67,0-2.986-0.009-4.041-0.059c-0.975-0.044-1.504-0.208-1.857-0.344
		c-0.466-0.181-0.799-0.398-1.149-0.747c-0.351-0.351-0.568-0.684-0.749-1.151c-0.137-0.353-0.299-0.882-0.344-1.857
		c-0.048-1.053-0.058-1.371-0.058-4.04c0-2.67,0.01-2.987,0.058-4.042c0.045-0.975,0.208-1.504,0.344-1.856
		c0.181-0.468,0.398-0.8,0.749-1.151c0.35-0.349,0.683-0.567,1.149-0.748c0.353-0.137,0.882-0.3,1.857-0.344
		C12.014,6.813,12.33,6.802,15,6.802 M15,5c-2.715,0-3.056,0.012-4.123,0.06C9.813,5.11,9.086,5.278,8.45,5.525
		C7.792,5.78,7.234,6.124,6.679,6.679C6.123,7.235,5.781,7.793,5.526,8.45C5.278,9.086,5.11,9.813,5.06,10.877
		C5.012,11.944,5,12.285,5,15.001c0,2.714,0.012,3.055,0.06,4.123c0.049,1.064,0.218,1.792,0.465,2.428
		c0.255,0.657,0.597,1.215,1.153,1.771c0.555,0.557,1.113,0.9,1.771,1.154c0.637,0.247,1.363,0.416,2.428,0.465
		C11.943,24.989,12.284,25,15,25c2.717,0,3.057-0.012,4.123-0.06c1.065-0.049,1.792-0.218,2.428-0.465
		c0.657-0.256,1.215-0.598,1.771-1.154c0.557-0.556,0.898-1.113,1.154-1.771c0.247-0.636,0.416-1.363,0.465-2.428
		c0.048-1.067,0.06-1.406,0.06-4.123s-0.012-3.057-0.06-4.124c-0.049-1.064-0.218-1.792-0.465-2.427
		c-0.256-0.658-0.598-1.215-1.154-1.771c-0.555-0.555-1.113-0.898-1.771-1.153c-0.636-0.247-1.362-0.415-2.428-0.465
		C18.057,5.012,17.717,5,15,5"/>
	<path fill="#0099CC" d="M15,9.866c-2.836,0-5.136,2.298-5.136,5.135c0,2.837,2.3,5.135,5.136,5.135
		c2.836,0,5.135-2.298,5.135-5.135C20.135,12.164,17.836,9.866,15,9.866 M15,18.333c-1.841,0-3.333-1.491-3.333-3.333
		s1.492-3.334,3.333-3.334c1.842,0,3.334,1.493,3.334,3.334S16.842,18.333,15,18.333"/>
	<path fill="#0099CC" d="M21.538,9.663c0,0.662-0.537,1.2-1.199,1.2c-0.663,0-1.2-0.538-1.2-1.2s0.537-1.201,1.2-1.201
		C21.001,8.462,21.538,9,21.538,9.663"/>
</g>
</svg>
