<?xml version="1.0" encoding="utf-8"?>
<!-- Generator: Adobe Illustrator 16.0.0, SVG Export Plug-In . SVG Version: 6.00 Build 0)  -->
<!DOCTYPE svg PUBLIC "-//W3C//DTD SVG 1.1//EN" "http://www.w3.org/Graphics/SVG/1.1/DTD/svg11.dtd">
<svg version="1.1" id="Layer_1" xmlns="http://www.w3.org/2000/svg" xmlns:xlink="http://www.w3.org/1999/xlink" x="0px" y="0px"
	 width="15.002px" height="26.997px" viewBox="0 0 15.002 26.997" enable-background="new 0 0 15.002 26.997" xml:space="preserve">
<path fill-rule="evenodd" clip-rule="evenodd" fill="#FFFFFF" d="M14.77,12.946l-0.559-0.553c-0.001-0.001-0.002-0.001-0.003-0.002
	L1.909,0.229c-0.309-0.306-0.81-0.306-1.118,0l-0.56,0.553c-0.309,0.306-0.309,0.8,0,1.105l11.743,11.611L0.231,25.109
	c-0.309,0.306-0.309,0.8,0,1.105l0.56,0.553c0.309,0.306,0.81,0.306,1.118,0L14.21,14.605c0-0.001,0.001-0.001,0.001-0.001
	l0.559-0.553C15.079,13.746,15.079,13.251,14.77,12.946z"/>
</svg>
