<?xml version="1.0" encoding="utf-8"?>
<!-- Generator: Adobe Illustrator 16.0.0, SVG Export Plug-In . SVG Version: 6.00 Build 0)  -->
<!DOCTYPE svg PUBLIC "-//W3C//DTD SVG 1.1//EN" "http://www.w3.org/Graphics/SVG/1.1/DTD/svg11.dtd">
<svg version="1.1" id="Layer_1" xmlns="http://www.w3.org/2000/svg" xmlns:xlink="http://www.w3.org/1999/xlink" x="0px" y="0px"
	 width="21.995px" height="16.992px" viewBox="0 0 21.995 16.992" enable-background="new 0 0 21.995 16.992" xml:space="preserve">
<path fill="#FFFFFF" d="M21.321,3.182c-3.055-6.048-9.711-1.675-10.333-1.356C10.367,1.507,3.522-2.597,0.656,3.182
	c-2.877,5.799,4.405,11.22,8.408,13.81c0.017-0.114,0.033-0.222,0.048-0.316c0.12-0.757,0.143-1.59-0.151-2.647
	c-0.444-0.382-0.808-0.851-1.017-1.364C7.589,11.792,7.25,10.55,6.275,9.846C5.766,9.478,5.478,9.068,5.733,8.842
	S6.34,8.64,6.671,8.729c1.056,0.283,2.094,2.096,2.094,2.096c0.082-0.354,0.26-0.641,0.282-0.982L8.05,5.807
	C7.96,5.497,8.106,5.002,8.421,4.915C8.737,4.827,9.109,5.24,9.199,5.551l1.019,3.468c0.07-0.028,0.173-4.066,0.173-4.066
	c-0.021-0.427,0.306-0.833,0.637-0.833c0.33,0,0.511,0.342,0.555,0.79l0.043,3.944c0.088,0.014,0.885-3.506,0.885-3.506
	c0.057-0.313,0.35-0.716,0.729-0.628c0.314,0.073,0.48,0.517,0.424,0.831l-0.69,3.937c0.073,0.063,1.253-2.976,1.253-2.976
	c0.174-0.427,0.467-0.604,0.74-0.515s0.365,0.515,0.192,1.006l-1.15,3.515c-0.03,0.091,0.089,1.049,0.089,1.504
	c0,0.959-0.382,1.818-0.983,2.404c-0.03,0.648,0.03,1.553,0.108,2.361C17.339,14.084,24.167,8.816,21.321,3.182z"/>
</svg>
