<?xml version="1.0" encoding="utf-8"?>
<!-- Generator: Adobe Illustrator 16.0.0, SVG Export Plug-In . SVG Version: 6.00 Build 0)  -->
<!DOCTYPE svg PUBLIC "-//W3C//DTD SVG 1.1//EN" "http://www.w3.org/Graphics/SVG/1.1/DTD/svg11.dtd">
<svg version="1.1" id="Layer_1" xmlns="http://www.w3.org/2000/svg" xmlns:xlink="http://www.w3.org/1999/xlink" x="0px" y="0px"
	 width="14px" height="23.998px" viewBox="0 0 14 23.998" enable-background="new 0 0 14 23.998" xml:space="preserve">
<path fill="#FFFFFF" d="M12.771,23.998c-4.037,0-7.504,0-11.541,0C0.242,23.614,0,23.25,0,22.142c0-2.874,0-5.747,0-8.62
	C0,9.571-0.003,5.62,0.007,1.67c0-0.28,0.058-0.578,0.162-0.837C0.358,0.358,0.768,0.133,1.229,0c4.037,0,7.504,0,11.541,0
	C13.758,0.381,14,0.747,14,1.857c0,2.865,0,5.73,0,8.596c0,3.958,0.003,7.917-0.008,11.875c0,0.28-0.058,0.578-0.161,0.837
	C13.642,23.64,13.232,23.865,12.771,23.998z M12.533,3.766c-3.89,0-7.192,0-11.058,0c0,5.502,0,10.988,0,16.471
	c3.884,0,7.181,0,11.058,0C12.533,14.744,12.533,9.264,12.533,3.766z M6.988,2.25c0.795,0,1.59,0,2.386-0.001
	c0.075,0,0.153,0.006,0.226-0.01c0.195-0.041,0.312-0.17,0.307-0.375C9.902,1.67,9.787,1.548,9.602,1.511
	C9.529,1.495,9.451,1.5,9.375,1.5c-1.582,0-3.166-0.001-4.749,0.001c-0.09,0-0.185-0.003-0.27,0.021
	c-0.173,0.05-0.268,0.18-0.264,0.363c0.004,0.173,0.099,0.296,0.262,0.342c0.078,0.022,0.165,0.022,0.247,0.022
	C5.397,2.25,6.192,2.25,6.988,2.25z M8.091,22.113C8.086,21.502,7.59,20.997,6.996,21c-0.594,0.003-1.086,0.511-1.087,1.122
	c-0.001,0.62,0.504,1.134,1.106,1.124C7.609,23.237,8.097,22.724,8.091,22.113z"/>
</svg>
