<?xml version="1.0" encoding="utf-8"?>
<!-- Generator: Adobe Illustrator 16.0.0, SVG Export Plug-In . SVG Version: 6.00 Build 0)  -->
<!DOCTYPE svg PUBLIC "-//W3C//DTD SVG 1.1//EN" "http://www.w3.org/Graphics/SVG/1.1/DTD/svg11.dtd">
<svg version="1.1" id="Layer_1" xmlns="http://www.w3.org/2000/svg" xmlns:xlink="http://www.w3.org/1999/xlink" x="0px" y="0px"
	 width="17.967px" height="17px" viewBox="0 0 17.967 17" enable-background="new 0 0 17.967 17" xml:space="preserve">
<path fill="#0099CC" d="M11.82,1.923c-2.704-2.563-7.089-2.563-9.791,0c-2.706,2.566-2.706,6.725-0.002,9.289
	c2.441,2.316,6.251,2.534,8.959,0.667l5.073,4.812c0.436,0.414,1.144,0.414,1.581,0c0.435-0.414,0.435-1.086,0-1.5l-5.081-4.817
	C14.489,7.808,14.248,4.226,11.82,1.923z M10.24,9.712c-1.828,1.734-4.802,1.734-6.631,0c-1.829-1.734-1.829-4.555,0-6.29
	c1.829-1.734,4.804-1.734,6.63,0C12.069,5.158,12.069,7.979,10.24,9.712z"/>
</svg>
