<?xml version="1.0" encoding="utf-8"?>
<!-- Generator: Adobe Illustrator 16.0.0, SVG Export Plug-In . SVG Version: 6.00 Build 0)  -->
<!DOCTYPE svg PUBLIC "-//W3C//DTD SVG 1.1//EN" "http://www.w3.org/Graphics/SVG/1.1/DTD/svg11.dtd">
<svg version="1.1" id="Layer_1" xmlns="http://www.w3.org/2000/svg" xmlns:xlink="http://www.w3.org/1999/xlink" x="0px" y="0px"
	 width="20.997px" height="14.998px" viewBox="0 0 20.997 14.998" enable-background="new 0 0 20.997 14.998" xml:space="preserve">
<g>
	<g>
		<path fill="#FFFFFF" d="M8.239,7.24l1.563,1.541c0.187,0.183,0.434,0.283,0.696,0.283c0.264,0,0.51-0.101,0.696-0.283l1.563-1.541
			l0.649-0.64l6.618-6.521C19.877,0.029,19.719,0,19.553,0H1.443C1.278,0,1.119,0.029,0.971,0.08l6.619,6.521L8.239,7.24z
			 M0.239,0.639C0.088,0.863,0,1.133,0,1.422v12.154c0,0.151,0.024,0.297,0.069,0.434L6.94,7.24L0.239,0.639z M11.844,9.421
			c-0.359,0.354-0.838,0.549-1.346,0.549c-0.508,0-0.986-0.194-1.346-0.549L7.589,7.88l-6.967,6.865
			c0.233,0.159,0.516,0.253,0.821,0.253h18.11c0.306,0,0.588-0.094,0.822-0.253L13.408,7.88L11.844,9.421z M20.758,0.639
			L14.057,7.24l6.871,6.77c0.045-0.137,0.068-0.282,0.068-0.434V1.422C20.997,1.133,20.909,0.863,20.758,0.639z"/>
	</g>
</g>
</svg>
