<?xml version="1.0" encoding="utf-8"?>
<!-- Generator: Adobe Illustrator 16.0.0, SVG Export Plug-In . SVG Version: 6.00 Build 0)  -->
<!DOCTYPE svg PUBLIC "-//W3C//DTD SVG 1.1//EN" "http://www.w3.org/Graphics/SVG/1.1/DTD/svg11.dtd">
<svg version="1.1" id="Layer_1" xmlns="http://www.w3.org/2000/svg" xmlns:xlink="http://www.w3.org/1999/xlink" x="0px" y="0px"
	 width="18.005px" height="19.004px" viewBox="0 0 18.005 19.004" enable-background="new 0 0 18.005 19.004" xml:space="preserve">
<g>
	<g>
		<path fill="#FFFFFF" d="M6.577,11.568c0.753-1.46,1.983-2.265,3.464-2.265c0.091,0,0.181,0.008,0.271,0.014
			C10.3,9.31,10.291,9.302,10.28,9.295c1.148-0.969,1.876-2.406,1.876-4.013C12.156,2.365,9.761,0,6.805,0S1.453,2.365,1.453,5.282
			c0,1.607,0.73,3.043,1.877,4.013C1.338,10.625,0,13.057,0,15.846c0,2.729,5.704,3.688,9.727,2.883
			C5.739,15.656,5.746,13.182,6.577,11.568z M17.746,12.278c-1.523-2.957-4.615-0.366-4.877-0.231
			c-0.263-0.135-3.355-2.725-4.879,0.231c-1.603,3.109,4.781,6.578,4.879,6.691C12.965,18.854,19.35,15.388,17.746,12.278z"/>
	</g>
</g>
</svg>
