<?xml version="1.0" encoding="utf-8"?>
<!-- Generator: Adobe Illustrator 16.0.0, SVG Export Plug-In . SVG Version: 6.00 Build 0)  -->
<!DOCTYPE svg PUBLIC "-//W3C//DTD SVG 1.1//EN" "http://www.w3.org/Graphics/SVG/1.1/DTD/svg11.dtd">
<svg version="1.1" id="Layer_1" xmlns="http://www.w3.org/2000/svg" xmlns:xlink="http://www.w3.org/1999/xlink" x="0px" y="0px"
	 width="10px" height="17px" viewBox="0 0 10 17" enable-background="new 0 0 10 17" xml:space="preserve">
<path fill="#0099CC" d="M9.122,17c-2.884,0-5.36,0-8.244,0C0.173,16.727,0,16.469,0,15.683c0-2.035,0-4.07,0-6.105
	C0,6.78-0.002,3.981,0.005,1.183C0.006,0.984,0.047,0.774,0.121,0.59C0.256,0.254,0.549,0.094,0.878,0c2.884,0,5.36,0,8.244,0
	C9.826,0.27,10,0.529,10,1.316c0,2.029,0,4.059,0,6.088c0,2.804,0.002,5.608-0.005,8.412c-0.001,0.199-0.042,0.41-0.116,0.593
	C9.744,16.746,9.451,16.905,9.122,17z M8.952,2.667c-2.778,0-5.137,0-7.898,0c0,3.897,0,7.783,0,11.667c2.774,0,5.129,0,7.898,0
	C8.952,10.444,8.952,6.562,8.952,2.667z M4.991,1.594c0.568,0,1.136,0,1.704,0c0.055,0,0.109,0.003,0.162-0.007
	c0.14-0.029,0.223-0.12,0.219-0.266C7.073,1.183,6.991,1.097,6.858,1.07C6.807,1.06,6.751,1.062,6.697,1.062
	c-1.131,0-2.262,0-3.393,0c-0.064,0-0.132-0.002-0.193,0.016C2.988,1.113,2.92,1.206,2.923,1.335
	C2.926,1.458,2.994,1.544,3.11,1.578c0.056,0.016,0.117,0.016,0.177,0.016C3.855,1.594,4.423,1.594,4.991,1.594z M5.779,15.664
	c-0.004-0.434-0.358-0.79-0.782-0.788c-0.425,0.002-0.775,0.361-0.776,0.794c-0.001,0.439,0.36,0.804,0.79,0.797
	C5.436,16.46,5.783,16.096,5.779,15.664z"/>
</svg>
