<?xml version="1.0" encoding="utf-8"?>
<!-- Generator: Adobe Illustrator 16.0.0, SVG Export Plug-In . SVG Version: 6.00 Build 0)  -->
<!DOCTYPE svg PUBLIC "-//W3C//DTD SVG 1.1//EN" "http://www.w3.org/Graphics/SVG/1.1/DTD/svg11.dtd">
<svg version="1.1" id="Layer_1" xmlns="http://www.w3.org/2000/svg" xmlns:xlink="http://www.w3.org/1999/xlink" x="0px" y="0px"
	 width="40px" height="13px" viewBox="0 0 40 13" enable-background="new 0 0 40 13" xml:space="preserve">
<g>
	<g>
		<path fill-rule="evenodd" clip-rule="evenodd" fill="#0693CF" d="M38.857,0H1.143C0.512,0,0,0.216,0,0.481v1.444
			c0,0.267,0.512,0.482,1.143,0.482h37.715C39.488,2.408,40,2.192,40,1.926V0.481C40,0.216,39.488,0,38.857,0z M38.857,5.296H1.143
			C0.512,5.296,0,5.512,0,5.777v1.445c0,0.266,0.512,0.48,1.143,0.48h37.715c0.631,0,1.143-0.215,1.143-0.48V5.777
			C40,5.512,39.488,5.296,38.857,5.296z M38.857,10.593H1.143C0.512,10.593,0,10.809,0,11.074v1.444C0,12.784,0.512,13,1.143,13
			h37.715C39.488,13,40,12.784,40,12.519v-1.444C40,10.809,39.488,10.593,38.857,10.593z"/>
	</g>
</g>
</svg>
