<?xml version="1.0" encoding="utf-8"?>
<!-- Generator: Adobe Illustrator 16.0.0, SVG Export Plug-In . SVG Version: 6.00 Build 0)  -->
<!DOCTYPE svg PUBLIC "-//W3C//DTD SVG 1.1//EN" "http://www.w3.org/Graphics/SVG/1.1/DTD/svg11.dtd">
<svg version="1.1" id="Layer_1" xmlns="http://www.w3.org/2000/svg" xmlns:xlink="http://www.w3.org/1999/xlink" x="0px" y="0px"
	 width="380px" height="112.2px" viewBox="0 0 380 112.2" enable-background="new 0 0 380 112.2" xml:space="preserve">
<g>
	<g>
		<g>
			<path fill="#0093D0" d="M12.374,53.223C6.265,53.223,0,49.314,0,38.19c0-9.057,5.729-14.507,12.29-14.507h7.852
				c0.385,0,0.57,0.106,0.53,0.491l-0.296,2.736c-0.044,0.391-0.334,0.575-0.714,0.491c-2.323-0.726-3.719-1.346-7.427-1.346
				c-4.908,0-7.611,4.277-7.611,12.179c0,9.442,4.104,12.436,9.253,12.436c1.92,0,4.238-1.262,5.835-2.703
				c0.089-0.101,0.33-0.19,0.469-0.044l1.016,1.149c0.14,0.151,0.14,0.336,0.05,0.442C19.13,51.776,15.942,53.223,12.374,53.223z"/>
			<path fill="#0093D0" d="M33.71,53.318c-8.186,0-10.777-5.786-10.777-12.134c0-6.125,2.887-12.335,10.928-12.335
				c8.141,0,10.793,5.773,10.793,12.139C44.655,47.103,41.768,53.318,33.71,53.318z M33.626,30.68c-5.545,0-6.561,5.489-6.561,9.917
				c0,4.238,0.637,10.839,6.896,10.839c5.545,0,6.505-5.489,6.505-9.867C40.467,37.274,39.886,30.68,33.626,30.68z"/>
			<path fill="#0093D0" d="M74.948,40.988v11.028c0,0.375-0.24,0.576-0.67,0.576H71.91c-0.435,0-0.726-0.201-0.726-0.576
				l0.056-11.028v-5.109c0-0.146-0.246-0.346-0.436-0.045l-9.007,15.797c-0.24,0.385-0.776,0.385-0.961-0.05l-8.493-15.848
				c-0.034-0.044-0.235,0-0.235,0.101l0.436,16.182c0.044,0.375-0.235,0.576-0.67,0.576h-1.971c-0.441,0-0.676-0.201-0.676-0.576
				l0.48-15.998l-0.106-5.975c0-0.385,0.246-0.575,0.681-0.575h2.457c0.285,0,0.62,0.101,0.765,0.391l8.242,16.143
				c0.145,0.185,0.436,0.185,0.536,0l8.711-15.853c0.189-0.341,0.441-0.682,0.966-0.682h2.317c0.525,0,0.721,0.341,0.721,0.726
				L74.948,40.988z"/>
			<path fill="#0093D0" d="M106.989,40.988v11.028c0,0.375-0.251,0.576-0.687,0.576h-2.356c-0.436,0-0.715-0.201-0.715-0.576
				l0.044-11.028v-5.109c0-0.146-0.246-0.346-0.436-0.045l-9.007,15.797c-0.24,0.385-0.771,0.385-0.966-0.05l-8.476-15.848
				c-0.056-0.044-0.241,0-0.241,0.101l0.431,16.182c0.044,0.375-0.246,0.576-0.665,0.576h-1.994c-0.418,0-0.665-0.201-0.665-0.576
				l0.486-15.998l-0.101-5.975c0-0.385,0.24-0.575,0.676-0.575h2.452c0.29,0,0.631,0.101,0.776,0.391l8.242,16.143
				c0.14,0.185,0.43,0.185,0.519,0l8.722-15.853c0.201-0.341,0.43-0.682,0.966-0.682h2.307c0.53,0,0.731,0.341,0.731,0.726
				L106.989,40.988z"/>
			<path fill="#0093D0" d="M131.29,32.941l-0.323,12.715c-0.146,5.014-3.329,7.566-8.672,7.566c-5.969,0-9.694-2.552-9.777-7.566
				l-0.146-13.056l-0.056-2.558c0-0.385,0.285-0.575,0.726-0.575h2.603c0.441,0,0.72,0.19,0.72,0.575l-0.089,2.558l-0.056,12.771
				c0,3.512,2.753,5.539,6.271,5.539c2.993,0,5.64-1.501,5.59-5.154l-0.151-12.765c0-1.15-0.201-2.747-0.201-2.747
				c0-0.385,0.106-0.776,0.581-0.776h2.558c0.48,0,0.581,0.391,0.581,0.776C131.446,30.245,131.346,31.735,131.29,32.941z"/>
			<path fill="#0093D0" d="M156.686,46.382l0.05,6.12c0,0.815-1.011,0.675-1.262,0.43l-14.926-17.629
				c-0.14-0.15-0.234-0.044-0.234,0l0.525,16.568c0,0.335-0.09,0.721-0.626,0.721h-2.167c-0.486,0-0.575-0.385-0.575-0.721
				l0.475-16.182l-0.095-5.646c0-0.385,0.291-0.575,0.726-0.575h1.066c0.324,0,0.67,0.145,0.86,0.391l13.195,15.602
				c0.24,0.296,0.536,0.106,0.536-0.089l-0.436-15.177c0-0.335,0.05-0.726,0.575-0.726h2.027c0.486,0,0.581,0.391,0.581,0.726
				L156.686,46.382z"/>
			<path fill="#0093D0" d="M166.369,52.592h-2.457c-0.43,0-0.67-0.201-0.67-0.576l0.039-10.983l-0.039-10.99
				c0-0.385,0.24-0.575,0.67-0.575h2.457c0.48,0,0.72,0.19,0.72,0.575l-0.039,10.99l0.039,10.983
				C167.089,52.391,166.849,52.592,166.369,52.592z"/>
			<path fill="#0093D0" d="M189.531,31.691c0,0.436-0.335,0.475-0.67,0.475c0,0-4.534-0.475-6.656-0.475
				c-0.24,0-0.436,0.234-0.475,0.575v8.768v10.983c0.039,0.375-0.246,0.576-0.67,0.576h-2.462c-0.43,0-0.665-0.201-0.665-0.576
				V41.033v-8.812c0-0.296-0.246-0.53-0.492-0.53c-2.116,0-6.645,0.475-6.645,0.475c-0.341,0-0.67-0.039-0.67-0.475l-0.15-1.692
				c-0.044-0.385,0.38-0.53,0.821-0.53h18.064c0.435,0,0.865,0.145,0.82,0.53L189.531,31.691z"/>
			<path fill="#0093D0" d="M203.251,42.144c-0.189,0.195-0.285,0.43-0.285,0.72l0.051,9.152c0,0.375-0.234,0.576-0.676,0.576h-2.462
				c-0.432,0-0.715-0.201-0.715-0.576l0.05-8.426c0-0.291-0.101-0.542-0.24-0.726l-9.308-12.714
				c-0.28-0.391-0.146-0.682,0.346-0.682h3.227c0.425,0,0.776,0.19,1.006,0.53l7.181,10.509c0.096,0.089,0.24,0.089,0.285,0
				l6.556-10.648c0.24-0.341,0.485-0.391,0.871-0.391h2.116c0.53,0,0.53,0.391,0.335,0.726L203.251,42.144z"/>
			<path fill="#8DC63F" d="M238.514,52.592h-15.702c-0.43,0-0.62-0.201-0.62-0.576l0.039-13.876l-0.039-13.876
				c0-0.379,0.19-0.581,0.62-0.581h2.792c0.436,0,0.626,0.201,0.626,0.581l-0.045,13.876l0.045,10.85c0,0.62,0.53,1.145,1.172,1.145
				h3.842c2.401,0,7.271-0.91,7.271-0.91c0.391-0.05,0.727,0.039,0.727,0.436v2.446C239.24,52.502,238.904,52.592,238.514,52.592z"
				/>
			<path fill="#8DC63F" d="M245.739,52.592h-2.463c-0.429,0-0.669-0.201-0.669-0.576l0.056-10.983l-0.056-10.99
				c0-0.385,0.24-0.575,0.669-0.575h2.463c0.485,0,0.726,0.19,0.726,0.575l-0.05,10.99l0.05,10.983
				C246.465,52.391,246.225,52.592,245.739,52.592z"/>
			<path fill="#8DC63F" d="M262.647,52.352c-0.101,0.291-0.972,0.475-1.401,0.475c-0.475,0-1.301-0.184-1.396-0.436l-8.816-19.689
				l-1.201-2.552c-0.195-0.441,0.045-0.682,0.486-0.682h3.222c0.436,0,0.732,0.19,0.871,0.53l1.056,2.558l6.12,15.602
				c0.05,0.05,0.341,0.05,0.341,0l6.594-18.159c0.141-0.34,0.335-0.53,0.766-0.53h2.223c0.524,0,0.575,0.43,0.435,0.776
				L262.647,52.352z"/>
			<path fill="#8DC63F" d="M277.713,52.592h-2.457c-0.43,0-0.67-0.201-0.67-0.576l0.045-10.983l-0.045-10.99
				c0-0.385,0.24-0.575,0.67-0.575h2.457c0.48,0,0.726,0.19,0.726,0.575l-0.05,10.99l0.05,10.983
				C278.438,52.391,278.193,52.592,277.713,52.592z"/>
			<path fill="#8DC63F" d="M303.924,46.382l0.045,6.12c0,0.815-1.017,0.675-1.257,0.43l-14.926-17.629
				c-0.145-0.15-0.245-0.044-0.245,0l0.541,16.568c0,0.335-0.105,0.721-0.636,0.721h-2.167c-0.486,0-0.58-0.385-0.58-0.721
				l0.48-16.182l-0.091-5.646c0-0.385,0.285-0.575,0.722-0.575h1.061c0.34,0,0.67,0.145,0.865,0.391l13.2,15.602
				c0.24,0.296,0.53,0.106,0.53-0.089l-0.43-15.177c0-0.335,0.051-0.726,0.575-0.726h2.021c0.475,0,0.581,0.391,0.581,0.726
				L303.924,46.382z"/>
			<path fill="#8DC63F" d="M329.062,52.687c-0.424,0-1.49-0.91-1.635-1.017c-0.235-0.139-0.335-0.139-0.581,0
				c-1.631,0.776-4.038,1.407-6.254,1.407c-5.501,0-11.091-3.088-11.091-12c0-7.271,5.115-11.609,10.99-11.609h6.84
				c0.341,0,0.721,0.101,0.67,0.53l-0.29,2.167c-0.039,0.436-0.38,0.631-0.821,0.536c-1.005-0.285-1.826-0.575-2.73-0.776
				c-0.977-0.19-2.082-0.285-3.713-0.285c-4.193,0-6.645,3.183-6.645,9.437c0,7.371,3.657,9.777,8.091,9.777
				c1.96,0,4.333-1.245,4.333-2.356c0-0.341-0.43-6.305-0.43-6.305c0-0.05-0.102-0.775-0.102-0.921c0-0.38,0.336-0.676,0.716-0.676
				h2.892c0.247,0,0.492,0.151,0.492,0.436v11.033C329.795,52.446,329.449,52.687,329.062,52.687z"/>
		</g>
		<g>
			<path fill="#0093D0" d="M379.006,40.189c0.564,0.034,0.699-0.279,0.29-0.675l-9.883-9.638c-0.402-0.391-1.184-0.575-1.731-0.408
				l-27.255,8.661c-0.548,0.173-0.525,0.34,0.045,0.368L379.006,40.189z"/>
			<path fill="#0093D0" d="M339.025,0.247c-0.413-0.396-0.955-0.307-1.218,0.202l-11.012,21.543
				c-0.262,0.508-0.479,1.111-0.479,1.351c0,0.235,0.362,0.15,0.804-0.207l18.601-14.932c0.446-0.357,0.468-0.972,0.072-1.368
				L339.025,0.247z"/>
			<path fill="#0093D0" d="M355.52,17.658c0.543-0.212,0.648-0.704,0.229-1.095l-7.84-7.65c-0.407-0.391-1.017-0.352-1.362,0.101
				l-12.246,16.238c-0.335,0.458-0.179,0.665,0.347,0.458L355.52,17.658z"/>
			<path fill="#0093D0" d="M366.806,28.463c0.563-0.067,0.691-0.447,0.279-0.843l-8.901-8.677c-0.396-0.396-1.122-0.464-1.586-0.151
				L337.69,31.35c-0.475,0.307-0.386,0.519,0.162,0.447L366.806,28.463z"/>
		</g>
		<g>
			<path fill="#8DC63F" d="M379.006,41.25c0.564-0.033,0.699,0.268,0.29,0.676l-9.883,9.638c-0.402,0.391-1.184,0.576-1.731,0.402
				l-27.255-8.655c-0.548-0.185-0.525-0.336,0.045-0.358L379.006,41.25z"/>
			<path fill="#8DC63F" d="M339.025,81.203c-0.413,0.386-0.955,0.297-1.218-0.212l-11.012-21.542
				c-0.262-0.509-0.479-1.111-0.479-1.357c0-0.229,0.362-0.14,0.804,0.212l18.601,14.932c0.446,0.352,0.468,0.972,0.072,1.362
				L339.025,81.203z"/>
			<path fill="#8DC63F" d="M355.52,63.782c0.543,0.212,0.648,0.704,0.229,1.094l-7.84,7.655c-0.407,0.387-1.017,0.347-1.362-0.111
				l-12.246-16.232c-0.335-0.458-0.179-0.653,0.347-0.458L355.52,63.782z"/>
			<path fill="#8DC63F" d="M366.806,52.988c0.563,0.056,0.691,0.436,0.279,0.837l-8.901,8.683c-0.396,0.391-1.122,0.458-1.586,0.146
				L337.69,50.096c-0.475-0.318-0.386-0.525,0.162-0.463L366.806,52.988z"/>
		</g>
	</g>
	<g>
		<path fill="#0093D0" d="M6.857,75.949c-2.233,0-3.552-0.503-4.729-0.988c-0.162-0.072-0.195-0.263-0.14-0.408l0.413-1.485
			c0.034-0.189,0.257-0.189,0.396-0.021c0.989,1.026,2.418,1.77,4.244,1.77c1.664,0,3.054-1.055,3.054-2.44
			c0-3.791-8.058-2.887-8.058-7.655c0-2.418,1.72-3.808,4.121-3.808c2.161,0,3.624,0.356,4.724,0.435
			c0.173,0,0.218,0.162,0.173,0.308l-0.296,1.458c-0.022,0.172-0.218,0.223-0.385,0.128c-0.983-0.575-2.273-1.229-4.266-1.229
			c-1.346,0-2.323,0.727-2.323,1.849c0,3.858,8.08,2.613,8.08,8.007C11.866,74.815,9.532,75.949,6.857,75.949z"/>
		<path fill="#0093D0" d="M21.861,75.479l-0.447-0.468c-0.201-0.213-0.564-0.196-0.798-0.022c-0.871,0.563-1.916,0.927-3.066,0.927
			c-1.681,0-3.004-0.904-3.004-2.608c0-0.888,0.458-1.921,1.664-2.445c0.876-0.385,2.25-0.547,3.373-0.888
			c0.698-0.218,1.229-0.503,1.229-1.229v-0.468c0-1.296-0.704-1.782-1.458-1.782c-1.01,0-2.239,0.269-3.143,0.677
			c-0.173,0.072-0.324-0.028-0.341-0.213l-0.111-1.134c-0.04-0.2,0.128-0.234,0.323-0.234h3.485c1.764,0,2.97,1.101,2.97,3.479
			v6.343C22.537,75.843,22.034,75.653,21.861,75.479z M20.812,70.79c0-0.151-0.073-0.219-0.218-0.219
			c-0.05,0-2.904,0.866-3.144,0.939c-0.742,0.24-1.223,0.715-1.223,1.39c0,1.245,0.531,2.111,1.916,2.111
			c1.497,0,2.669-0.771,2.669-1.826V70.79z"/>
		<path fill="#0093D0" d="M32.236,66.998c-0.011,0.196-0.156,0.29-0.33,0.212c-0.414-0.184-0.837-0.374-1.67-0.374
			c-0.916,0-1.753,0.509-2.138,1.441v7.091c0,0.185-0.123,0.285-0.335,0.285h-1.089c-0.218,0-0.302-0.101-0.302-0.285v-9.492
			c0-0.19,0.084-0.285,0.302-0.285h0.631c0.218,0,0.318,0.112,0.385,0.285l0.352,0.832c0.056,0.1,0.123,0.146,0.245,0.056
			c0.882-0.871,1.675-1.173,2.597-1.173h1.117c0.201,0,0.368,0.034,0.346,0.234L32.236,66.998z"/>
		<path fill="#0093D0" d="M42.79,75.653h-1.078c-0.212,0-0.335-0.101-0.335-0.285v-6.544c0-1.396-0.843-2.155-2.233-2.155
			c-0.91,0-2.607,0.692-2.607,1.826v6.873c0,0.185-0.117,0.285-0.346,0.285h-1.067c-0.223,0-0.318-0.101-0.318-0.285v-9.492
			c0-0.19,0.095-0.285,0.318-0.285h0.62c0.218,0,0.318,0.112,0.38,0.285l0.357,0.832c0.056,0.1,0.14,0.173,0.251,0.056
			c0.815-1.078,2.078-1.373,2.993-1.373c1.988,0,3.378,1.351,3.378,3.813v6.164C43.103,75.553,43.008,75.653,42.79,75.653z"/>
		<path fill="#0093D0" d="M47.938,62.899c-0.542,0-1.005-0.38-1.005-0.938c0-0.72,0.682-1.283,1.374-1.283c0.558,0,1,0.374,1,0.927
			C49.307,62.33,48.642,62.899,47.938,62.899z M50.077,75.653h-0.419c-1.48,0-2.384-0.614-2.384-2.753v-7.024
			c0-0.19,0.089-0.285,0.301-0.285h1.111c0.212,0,0.313,0.095,0.313,0.285v7.639c0,0.967,0.508,1.424,1.078,1.424
			c0.139,0,0.195,0,0.195,0.167v0.358C50.272,75.631,50.25,75.653,50.077,75.653z"/>
		<path fill="#0093D0" d="M59.983,75.479l-0.458-0.468c-0.195-0.213-0.559-0.196-0.793-0.022c-0.859,0.563-1.91,0.927-3.06,0.927
			c-1.687,0-3.004-0.904-3.004-2.608c0-0.888,0.458-1.921,1.653-2.445c0.899-0.385,2.256-0.547,3.384-0.888
			c0.687-0.218,1.228-0.503,1.228-1.229v-0.468c0-1.296-0.704-1.782-1.468-1.782c-1.005,0-2.228,0.269-3.144,0.677
			c-0.167,0.072-0.312-0.028-0.335-0.213l-0.117-1.134c-0.022-0.2,0.14-0.234,0.335-0.234h3.479c1.775,0,2.97,1.101,2.97,3.479
			v6.343C60.653,75.843,60.145,75.653,59.983,75.479z M58.933,70.79c0-0.151-0.072-0.219-0.218-0.219
			c-0.044,0-2.903,0.866-3.138,0.939c-0.754,0.24-1.234,0.715-1.234,1.39c0,1.245,0.531,2.111,1.927,2.111
			c1.48,0,2.664-0.771,2.664-1.826V70.79z"/>
		<path fill="#0093D0" d="M66.404,71.008c0,0-0.916-0.05-1.513-0.05c-0.592,0-1.508,0.05-1.508,0.05
			c-0.145,0-0.246-0.123-0.246-0.24v-0.954c0-0.146,0.101-0.252,0.246-0.252c0,0,0.916,0.05,1.508,0.05
			c0.598,0,1.513-0.05,1.513-0.05c0.151,0,0.234,0.105,0.234,0.252v0.954C66.639,70.885,66.556,71.008,66.404,71.008z"/>
		<path fill="#0093D0" d="M77.98,75.653h-7.812c-0.212,0-0.312-0.101-0.312-0.285l0.017-6.906l-0.017-6.902
			c0-0.195,0.101-0.291,0.312-0.291h1.385c0.212,0,0.318,0.096,0.318,0.291l-0.028,6.902l0.028,5.398
			c0,0.303,0.256,0.576,0.575,0.576h1.921c1.195,0,3.613-0.458,3.613-0.458c0.189-0.028,0.352,0.022,0.352,0.218v1.217
			C78.332,75.604,78.17,75.653,77.98,75.653z"/>
		<path fill="#0093D0" d="M87.685,75.479l-0.447-0.468c-0.189-0.213-0.563-0.196-0.793-0.022c-0.871,0.563-1.921,0.927-3.071,0.927
			c-1.687,0-2.993-0.904-2.993-2.608c0-0.888,0.447-1.921,1.653-2.445c0.888-0.385,2.25-0.547,3.373-0.888
			c0.704-0.218,1.229-0.503,1.229-1.229v-0.468c0-1.296-0.687-1.782-1.457-1.782c-1.011,0-2.24,0.269-3.144,0.677
			c-0.162,0.072-0.312-0.028-0.346-0.213l-0.112-1.134c-0.028-0.2,0.146-0.234,0.335-0.234h3.479c1.764,0,2.976,1.101,2.976,3.479
			v6.343C88.366,75.843,87.858,75.653,87.685,75.479z M86.635,70.79c0-0.151-0.073-0.219-0.218-0.219
			c-0.049,0-2.903,0.866-3.138,0.939c-0.749,0.24-1.223,0.715-1.223,1.39c0,1.245,0.525,2.111,1.916,2.111
			c1.485,0,2.664-0.771,2.664-1.826V70.79z"/>
		<path fill="#0093D0" d="M106.084,75.653h-1.15c-0.224,0-0.296-0.101-0.296-0.285v-6.544c0-1.396-0.665-2.155-2.061-2.155
			c-0.905,0-2.435,0.904-2.435,2.044v6.655c0,0.185-0.078,0.285-0.295,0.285h-1.15c-0.212,0-0.285-0.101-0.285-0.285v-6.544
			c0-1.396-0.653-2.155-2.044-2.155c-0.938,0-2.445,0.692-2.445,1.826v6.873c0,0.185-0.095,0.285-0.301,0.285h-1.134
			c-0.212,0-0.291-0.101-0.291-0.285v-9.492c0-0.19,0.095-0.285,0.291-0.285h0.647c0.212,0,0.313,0.112,0.38,0.285l0.363,0.832
			c0.045,0.1,0.145,0.173,0.235,0.056c0.815-1.078,1.921-1.373,2.809-1.373c1.508,0,2.591,0.72,2.999,2.16
			c0.436-1.273,1.771-2.16,3.233-2.16c1.993,0,3.216,1.351,3.216,3.813v6.164C106.369,75.553,106.28,75.653,106.084,75.653z"/>
		<path fill="#0093D0" d="M114.6,75.805c-1.899,0-2.29-0.464-2.96-0.464c-0.184,0-0.48,0-0.625,0.139
			c-0.167,0.174-0.687,0.363-0.687-0.066V60.845c0-0.201,0.117-0.291,0.335-0.291h1.072c0.223,0,0.324,0.09,0.324,0.291v5.757
			c0,0.184,0.179,0.106,0.251,0.034c0.793-0.826,1.636-1.195,2.541-1.195c2.189,0,4.132,1.396,4.132,5.249
			C118.983,73.86,116.984,75.805,114.6,75.805z M114.471,66.669c-0.815,0-1.943,0.619-2.412,1.652v4.172
			c0,1.652,0.57,2.468,2.435,2.468c1.653,0,2.658-1.58,2.658-4.271C117.151,67.551,115.862,66.669,114.471,66.669z"/>
		<path fill="#0093D0" d="M127.778,66.808l-3.049-0.044v6.751c0,0.967,0.503,1.424,1.078,1.424h0.604c0.134,0,0.189,0,0.189,0.167
			v0.358c0,0.167-0.017,0.189-0.189,0.189h-1.033c-1.463,0-2.368-0.614-2.368-2.753v-6.137h-2.111c-0.129,0-0.24-0.095-0.24-0.218
			c0-0.128-0.027-0.569,0-0.721c0.022-0.122,0.095-0.234,0.24-0.234h2.111v-2.233c0-0.073,0-0.151,0.073-0.167l1.262-0.559
			c0.268-0.112,0.419-0.112,0.419,0.173v2.786h3.015c0.123,0,0.24,0.022,0.24,0.162v0.849
			C128.018,66.741,127.9,66.808,127.778,66.808z"/>
		<path fill="#0093D0" d="M134.434,75.949c-2.585,0-4.629-2.145-4.629-5.36c0-3.211,2.044-5.288,4.629-5.288
			c2.568,0,4.635,2.077,4.635,5.288C139.069,73.805,137.002,75.949,134.434,75.949z M134.361,66.306
			c-2.178,0-2.675,2.189-2.675,3.976c0,1.804,0.447,4.809,2.826,4.809c2.178,0,2.664-2.43,2.664-4.155
			C137.176,69.092,136.746,66.306,134.361,66.306z"/>
		<path fill="#0093D0" d="M150.17,75.653h-1.078c-0.217,0-0.34-0.101-0.34-0.285v-6.544c0-1.396-0.838-2.155-2.228-2.155
			c-0.91,0-2.613,0.692-2.613,1.826v6.873c0,0.185-0.123,0.285-0.34,0.285h-1.073c-0.212,0-0.312-0.101-0.312-0.285v-9.492
			c0-0.19,0.101-0.285,0.312-0.285h0.62c0.218,0,0.307,0.112,0.379,0.285l0.363,0.832c0.05,0.1,0.14,0.173,0.246,0.056
			c0.815-1.078,2.083-1.373,2.993-1.373c1.993,0,3.384,1.351,3.384,3.813v6.164C150.482,75.553,150.387,75.653,150.17,75.653z"/>
	</g>
	<g>
		<path fill="#8DC63F" d="M159.148,100.603l-1.407,6.422c-0.033,0.184-0.15,0.279-0.346,0.279h-1.29
			c-0.207,0-0.273-0.096-0.229-0.279l1.452-6.422l1.379-6.416c0.04-0.173,0.162-0.263,0.352-0.263h1.296
			c0.201,0,0.268,0.09,0.212,0.263L159.148,100.603z"/>
		<path fill="#8DC63F" d="M170.702,105.538c-0.134,0.554-0.118,1.486-0.118,1.486c0,0.184-0.078,0.279-0.29,0.279h-1.044
			c-0.185,0-0.246-0.096-0.218-0.279c0,0,0.011-1.005,0.145-1.553c0.269-1.089,0.854-3.104,1.145-4.261
			c0.325-1.445,0.19-2.624-0.357-2.624c-1.949,0-4.461,4.718-4.903,6.611l-0.524,2.083c0,0.022-0.067,0.189-0.168,0.15l-1.145-0.312
			c-0.151-0.045-0.19-0.045-0.151-0.313l1.603-6.661c0.184-0.754,0.273-1.541,0.218-1.942c-0.022-0.18,0.117-0.258,0.324-0.258
			h1.072c0.196,0,0.268,0.078,0.268,0.258c-0.022,0.49-0.101,1.071-0.318,1.942l-0.134,0.563c-0.061,0.218,0.201,0.274,0.313,0.079
			c1.083-1.804,2.557-2.981,3.858-2.981c1.413,0,2.066,1.485,1.642,3.312C171.629,102.277,170.942,104.489,170.702,105.538z"/>
		<path fill="#8DC63F" d="M183.065,99.536c-0.112,0.207-0.268,0.207-0.375,0.101c-0.692-0.698-1.541-1.011-2.702-1.011
			c-0.776,0-1.692,0.357-1.888,1.229c-0.519,2.065,5.411,1.463,4.59,4.88c-0.508,2.089-2.457,2.854-4.299,2.854
			c-1.882,0-2.747-0.409-3.306-0.692c-0.084-0.046-0.084-0.18-0.05-0.269l0.653-1.179c0.083-0.162,0.296-0.162,0.357-0.045
			c0.598,0.938,1.536,1.335,2.519,1.335c0.882,0,2.318-0.52,2.585-1.58c0.291-1.189-1.005-1.586-2.3-2.061
			c-1.285-0.48-2.557-1.128-2.172-2.686c0.413-1.721,1.842-2.658,3.512-2.658c1.854,0,2.786,0.318,3.389,0.425
			c0.112,0.022,0.156,0.122,0.083,0.223L183.065,99.536z"/>
		<path fill="#8DC63F" d="M190.201,107.566c-0.698,0-1.312-0.202-1.753-0.509c-0.117-0.072-0.257-0.05-0.274,0.062l-0.586,2.362
			c-0.207,0.759-0.234,1.541-0.207,1.938c0,0.184-0.106,0.273-0.301,0.273h-1.072c-0.207,0-0.263-0.09-0.263-0.273
			c0.022-0.486,0.09-1.066,0.307-1.938l2.228-9.337c0.179-0.754,0.274-1.541,0.223-1.942c-0.022-0.18,0.112-0.258,0.313-0.258h1.066
			c0.201,0,0.268,0.078,0.268,0.258c-0.022,0.334-0.022,0.759-0.134,1.223c-0.033,0.161,0.134,0.161,0.273,0
			c1.156-1.336,2.518-1.604,3.009-1.604c1.692,0,3.407,0.889,2.49,4.73C195.087,105.489,192.535,107.566,190.201,107.566z
			 M192.809,98.917c-1.541,0-3.149,2.065-3.54,3.741l-0.453,1.831c-0.285,1.278,0.379,2.294,1.564,2.294
			c1.608,0,3.116-1.753,3.718-4.231C194.507,100.876,194.405,98.917,192.809,98.917z"/>
		<path fill="#8DC63F" d="M202.943,99.698l-1.346,5.617c-0.24,0.888,0.168,1.312,0.698,1.312c0.123,0,0.185,0,0.14,0.155
			l-0.089,0.336c-0.022,0.162-0.062,0.185-0.224,0.185h-0.408c-1.328,0-2.065-0.587-1.596-2.569l1.228-5.036
			c0.129-0.559,0.313-1.496,0.313-1.496c0.022-0.18,0.156-0.258,0.352-0.258h1.121c0.19,0,0.258,0.078,0.219,0.258
			C203.352,98.202,203.077,99.14,202.943,99.698z M202.994,95.449c-0.514,0-0.849-0.363-0.71-0.872
			c0.151-0.681,0.911-1.212,1.553-1.212c0.509,0,0.849,0.358,0.715,0.871C204.396,94.901,203.643,95.449,202.994,95.449z"/>
		<path fill="#8DC63F" d="M213.688,99.647c-0.062,0.096-0.168,0.185-0.257,0.185c-0.118,0-0.715-0.246-1.251-0.246
			c-0.916,0-2.68,2.334-3.484,5.685l-0.491,2.011c0,0.022-0.062,0.189-0.168,0.15l-1.145-0.312
			c-0.157-0.045-0.195-0.045-0.157-0.313l1.604-6.661c0.179-0.754,0.279-1.541,0.223-1.942c-0.016-0.18,0.118-0.258,0.308-0.258
			h1.077c0.201,0,0.274,0.078,0.274,0.258c-0.033,0.49,0.039,0.692-0.162,1.563l-0.128,0.479c-0.028,0.168,0.15,0.235,0.239,0.101
			c0.224-0.318,0.408-0.564,0.604-0.81c0.848-1.111,1.869-1.73,2.936-1.73c0.297,0,0.543,0.083,0.626,0.245
			c0.067,0.111,0.089,0.251,0.022,0.374L213.688,99.647z"/>
		<path fill="#8DC63F" d="M219.707,99.698l-1.363,5.617c-0.217,0.888,0.18,1.312,0.721,1.312c0.106,0,0.179,0,0.135,0.155
			l-0.096,0.336c-0.022,0.162-0.056,0.185-0.218,0.185h-0.401c-1.335,0-2.072-0.587-1.598-2.569l1.223-5.036
			c0.123-0.559,0.308-1.496,0.308-1.496c0.027-0.18,0.156-0.258,0.357-0.258h1.105c0.212,0,0.279,0.078,0.229,0.258
			C220.109,98.202,219.841,99.14,219.707,99.698z M219.758,95.449c-0.515,0-0.85-0.363-0.71-0.872
			c0.151-0.681,0.905-1.212,1.559-1.212c0.508,0,0.837,0.358,0.708,0.871C221.158,94.901,220.395,95.449,219.758,95.449z"/>
		<path fill="#8DC63F" d="M231.455,105.538c-0.128,0.554-0.105,1.486-0.105,1.486c0,0.184-0.096,0.279-0.296,0.279h-1.045
			c-0.185,0-0.251-0.096-0.218-0.279c0,0,0.018-1.005,0.151-1.553c0.263-1.089,0.844-3.104,1.134-4.261
			c0.334-1.445,0.195-2.624-0.357-2.624c-1.938,0-4.462,4.718-4.903,6.611l-0.513,2.083c0,0.022-0.062,0.189-0.168,0.15
			l-1.146-0.312c-0.156-0.045-0.206-0.045-0.156-0.313l1.604-6.661c0.189-0.754,0.272-1.541,0.229-1.942
			c-0.022-0.18,0.111-0.258,0.318-0.258h1.061c0.196,0,0.269,0.078,0.269,0.258c-0.022,0.49-0.09,1.071-0.312,1.942l-0.134,0.563
			c-0.062,0.218,0.194,0.274,0.317,0.079c1.089-1.804,2.558-2.981,3.848-2.981c1.424,0,2.071,1.485,1.652,3.312
			C232.388,102.277,231.706,104.489,231.455,105.538z"/>
		<path fill="#8DC63F" d="M243.679,108.872c-0.586,2.407-1.877,3.328-3.574,3.328h-1.96c-0.206,0-0.385-0.045-0.29-0.224
			l0.402-0.804c0.089-0.167,0.224-0.268,0.38-0.201c0,0,0.876,0.492,1.424,0.492c0.827,0,1.603-0.866,1.921-2.111l0.978-4.099
			c0.022-0.14-0.111-0.212-0.185-0.072c-0.894,1.362-2.223,2.289-3.519,2.289c-1.691,0-3.361-0.994-2.406-4.719
			c0.765-2.92,3.306-5.02,5.528-5.02c3.384,0,3.054,3.83,2.423,6.438L243.679,108.872z M242.267,98.521
			c-1.52,0-3.083,1.758-3.72,4.231c-0.43,1.664-0.38,3.624,1.201,3.624c1.563,0,3.138-2.065,3.546-3.74l0.223-0.933
			C243.931,99.943,243.449,98.521,242.267,98.521z"/>
		<path fill="#8DC63F" d="M259.945,101.597h-1.424c-0.207,0-0.47,0.173-0.521,0.374l-1.094,5.054
			c-0.045,0.184-0.156,0.279-0.357,0.279h-1.29c-0.189,0-0.268-0.096-0.223-0.279l1.451-6.422l1.379-6.416
			c0.051-0.173,0.162-0.263,0.357-0.263h4.373c2.256,0,4.276,1.005,3.674,3.725C265.78,99.877,263.619,101.597,259.945,101.597z
			 M261.375,94.812h-1.234c-0.291,0-0.598,0.229-0.665,0.513l-1.116,5.021c-0.045,0.195,0.14,0.396,0.356,0.396h1.118
			c2.071,0,3.891-0.598,4.478-3.161C264.73,95.688,263.887,94.812,261.375,94.812z"/>
		<path fill="#8DC63F" d="M271.593,107.566c-2.306,0-3.674-1.988-2.965-4.977c0.715-2.981,3.016-4.925,5.333-4.925
			c2.34,0,3.725,1.943,3.004,4.925C276.261,105.578,273.938,107.566,271.593,107.566z M273.604,98.604
			c-1.647,0.073-2.786,1.541-3.301,4.082c-0.514,2.513,0,4.12,1.631,4.082c1.647-0.067,2.831-1.726,3.345-4.233
			C275.781,99.994,275.234,98.559,273.604,98.604z"/>
		<path fill="#8DC63F" d="M287.691,99.536c-0.105,0.207-0.268,0.207-0.38,0.101c-0.687-0.698-1.535-1.011-2.697-1.011
			c-0.781,0-1.686,0.357-1.903,1.229c-0.502,2.065,5.422,1.463,4.601,4.88c-0.519,2.089-2.445,2.854-4.3,2.854
			c-1.87,0-2.735-0.409-3.3-0.692c-0.089-0.046-0.089-0.18-0.05-0.269l0.653-1.179c0.095-0.162,0.285-0.162,0.352-0.045
			c0.603,0.938,1.542,1.335,2.524,1.335c0.888,0,2.312-0.52,2.585-1.58c0.29-1.189-1.006-1.586-2.295-2.061
			c-1.29-0.48-2.563-1.128-2.184-2.686c0.425-1.721,1.849-2.658,3.523-2.658c1.838,0,2.775,0.318,3.379,0.425
			c0.116,0.022,0.15,0.122,0.1,0.223L287.691,99.536z"/>
		<path fill="#8DC63F" d="M298.787,99.536c-0.106,0.207-0.258,0.207-0.38,0.101c-0.681-0.698-1.535-1.011-2.691-1.011
			c-0.781,0-1.692,0.357-1.898,1.229c-0.509,2.065,5.411,1.463,4.59,4.88c-0.508,2.089-2.435,2.854-4.299,2.854
			c-1.866,0-2.742-0.409-3.29-0.692c-0.089-0.046-0.089-0.18-0.056-0.269l0.653-1.179c0.089-0.162,0.285-0.162,0.357-0.045
			c0.598,0.938,1.535,1.335,2.524,1.335c0.882,0,2.3-0.52,2.574-1.58c0.301-1.189-1-1.586-2.29-2.061
			c-1.295-0.48-2.562-1.128-2.183-2.686c0.413-1.721,1.843-2.658,3.512-2.658c1.854,0,2.798,0.318,3.396,0.425
			c0.111,0.022,0.15,0.122,0.083,0.223L298.787,99.536z"/>
		<path fill="#8DC63F" d="M306.102,99.698l-1.368,5.617c-0.212,0.888,0.19,1.312,0.727,1.312c0.106,0,0.179,0,0.122,0.155
			l-0.083,0.336c-0.022,0.162-0.062,0.185-0.218,0.185h-0.407c-1.341,0-2.072-0.587-1.598-2.569l1.212-5.036
			c0.134-0.559,0.323-1.496,0.323-1.496c0.022-0.18,0.151-0.258,0.363-0.258h1.106c0.207,0,0.262,0.078,0.223,0.258
			C306.504,98.202,306.235,99.14,306.102,99.698z M306.146,95.449c-0.508,0-0.854-0.363-0.709-0.872
			c0.145-0.681,0.916-1.212,1.563-1.212c0.497,0,0.838,0.358,0.704,0.871C307.554,94.901,306.789,95.449,306.146,95.449z"/>
		<path fill="#8DC63F" d="M313.283,107.432c-0.804,0-1.369-0.252-1.877-0.765c-0.072-0.039-0.15-0.089-0.245-0.089
			c-0.379,0-0.676,0.407-1.027,0.675c-0.173,0.146-0.575,0.218-0.491-0.179l2.786-11.614c0.173-0.76,0.246-1.536,0.207-1.938
			c-0.034-0.18,0.106-0.263,0.312-0.263h1.073c0.189,0,0.284,0.083,0.25,0.263c-0.01,0.491-0.061,1.072-0.278,1.938l-0.916,3.791
			c-0.011,0.156,0.179,0.196,0.312,0.04c1.162-1.313,2.474-1.599,2.966-1.599c1.692,0,3.39,1,2.495,4.726
			C318.152,105.36,315.623,107.432,313.283,107.432z M315.862,98.782c-1.541,0-3.143,2.072-3.539,3.752l-0.419,1.826
			c-0.324,1.268,0.356,2.289,1.535,2.289c1.603,0,3.104-1.753,3.719-4.231C317.555,100.742,317.471,98.782,315.862,98.782z"/>
		<path fill="#8DC63F" d="M325.741,99.698l-1.356,5.617c-0.225,0.888,0.178,1.312,0.702,1.312c0.118,0,0.19,0,0.135,0.155
			l-0.084,0.336c-0.022,0.162-0.073,0.185-0.218,0.185h-0.414c-1.339,0-2.071-0.587-1.607-2.569l1.233-5.036
			c0.135-0.559,0.319-1.496,0.319-1.496c0.017-0.18,0.15-0.258,0.352-0.258h1.117c0.2,0,0.263,0.078,0.223,0.258
			C326.143,98.202,325.875,99.14,325.741,99.698z M325.786,95.449c-0.509,0-0.855-0.363-0.722-0.872
			c0.157-0.681,0.928-1.212,1.559-1.212c0.515,0,0.849,0.358,0.72,0.871C327.188,94.901,326.434,95.449,325.786,95.449z"/>
		<path fill="#8DC63F" d="M333.832,95.019l-2.474,10.297c-0.201,0.888,0.134,1.312,0.659,1.312c0.134,0,0.189,0,0.162,0.155
			l-0.09,0.336c-0.039,0.162-0.072,0.185-0.224,0.185h-0.396c-1.368,0-2.061-0.587-1.563-2.569l2.34-9.744
			c0.117-0.552,0.084-1.468,0.084-1.468c0.033-0.18,0.162-0.263,0.362-0.263h1.111c0.202,0,0.246,0.083,0.229,0.263
			C334.033,93.522,333.988,94.41,333.832,95.019z"/>
		<path fill="#8DC63F" d="M340.181,99.698l-1.362,5.617c-0.224,0.888,0.185,1.312,0.721,1.312c0.111,0,0.178,0,0.128,0.155
			l-0.084,0.336c-0.027,0.162-0.061,0.185-0.223,0.185h-0.408c-1.329,0-2.066-0.587-1.602-2.569l1.228-5.036
			c0.129-0.559,0.313-1.496,0.313-1.496c0.022-0.18,0.15-0.258,0.357-0.258h1.11c0.201,0,0.263,0.078,0.229,0.258
			C340.589,98.202,340.315,99.14,340.181,99.698z M340.237,95.449c-0.521,0-0.854-0.363-0.715-0.872
			c0.145-0.681,0.904-1.212,1.552-1.212c0.509,0,0.849,0.358,0.715,0.871C341.633,94.901,340.868,95.449,340.237,95.449z"/>
		<path fill="#8DC63F" d="M351.461,98.877c-0.045,0.123-0.179,0.189-0.269,0.189l-2.825-0.033l-1.524,6.282
			c-0.218,0.888,0.156,1.312,0.704,1.312h0.547c0.111,0,0.179,0,0.134,0.155l-0.072,0.336c-0.028,0.162-0.084,0.185-0.219,0.185
			h-0.955c-1.361,0-2.065-0.587-1.602-2.569l1.379-5.701h-1.96c-0.106,0-0.206-0.095-0.179-0.206
			c0.022-0.117,0.106-0.525,0.156-0.665c0.062-0.111,0.156-0.218,0.285-0.218h1.965l0.486-2.083
			c0.034-0.022,0.095-0.156,0.117-0.156l1.317-0.508c0.241-0.111,0.386-0.111,0.324,0.146l-0.62,2.602h2.81
			c0.111,0,0.224,0.018,0.173,0.145L351.461,98.877z"/>
		<path fill="#8DC63F" d="M357.078,99.698l-1.357,5.617c-0.223,0.888,0.174,1.312,0.704,1.312c0.117,0,0.185,0,0.14,0.155
			l-0.083,0.336c-0.028,0.162-0.067,0.185-0.225,0.185h-0.412c-1.336,0-2.066-0.587-1.604-2.569l1.223-5.036
			c0.141-0.559,0.313-1.496,0.313-1.496c0.027-0.18,0.167-0.258,0.357-0.258h1.122c0.189,0,0.263,0.078,0.223,0.258
			C357.479,98.202,357.212,99.14,357.078,99.698z M357.123,95.449c-0.514,0-0.854-0.363-0.709-0.872
			c0.15-0.681,0.915-1.212,1.552-1.212c0.508,0,0.85,0.358,0.715,0.871C358.53,94.901,357.771,95.449,357.123,95.449z"/>
		<path fill="#8DC63F" d="M362.852,104.651c0.039,1.178,0.559,1.977,1.598,1.977c1.01,0,2.01-0.608,2.747-1.446l0.179-0.207
			c0.044-0.072,0.156-0.129,0.224-0.078l0.469,0.419c0.066,0.045,0.044,0.111-0.027,0.174c-0.889,1.116-2.195,1.942-3.854,1.942
			c-2.257,0-3.567-1.854-2.865-4.796c0.608-2.541,2.988-4.853,5.244-4.853c1.894,0,2.926,0.894,2.457,2.786
			C368.604,102.306,366.103,104.037,362.852,104.651z M366.397,98.559c-1.535,0-2.68,1.631-3.294,4.077
			c-0.106,0.429-0.168,0.826-0.213,1.212c2.379-0.481,4.272-1.698,4.708-3.435C367.884,99.273,367.419,98.559,366.397,98.559z"/>
		<path fill="#8DC63F" d="M379.369,99.536c-0.111,0.207-0.268,0.207-0.38,0.101c-0.687-0.698-1.541-1.011-2.702-1.011
			c-0.787,0-1.692,0.357-1.899,1.229c-0.508,2.065,5.423,1.463,4.602,4.88c-0.52,2.089-2.462,2.854-4.306,2.854
			c-1.869,0-2.735-0.409-3.305-0.692c-0.084-0.046-0.084-0.18-0.045-0.269l0.653-1.179c0.095-0.162,0.296-0.162,0.352-0.045
			c0.598,0.938,1.541,1.335,2.524,1.335c0.888,0,2.312-0.52,2.585-1.58c0.291-1.189-1.005-1.586-2.29-2.061
			c-1.301-0.48-2.568-1.128-2.188-2.686c0.424-1.721,1.842-2.658,3.518-2.658c1.848,0,2.786,0.318,3.384,0.425
			c0.117,0.022,0.161,0.122,0.101,0.223L379.369,99.536z"/>
	</g>
</g>
</svg>
