<?xml version="1.0" encoding="utf-8"?>
<!-- Generator: Adobe Illustrator 16.0.0, SVG Export Plug-In . SVG Version: 6.00 Build 0)  -->
<!DOCTYPE svg PUBLIC "-//W3C//DTD SVG 1.1//EN" "http://www.w3.org/Graphics/SVG/1.1/DTD/svg11.dtd">
<svg version="1.1" id="Layer_1" xmlns="http://www.w3.org/2000/svg" xmlns:xlink="http://www.w3.org/1999/xlink" x="0px" y="0px"
	 width="160px" height="54.537px" viewBox="0 0 160 54.537" enable-background="new 0 0 160 54.537" xml:space="preserve">
<g>
	<g>
		<g>
			<g>
				<path fill="#EE3124" d="M49.337,50.342c-0.387,0.391-0.854,0.584-1.403,0.584c-0.55,0-1.017-0.193-1.405-0.584
					c-0.382-0.387-0.575-0.854-0.575-1.406c0-0.547,0.195-1.013,0.582-1.396c0.386-0.387,0.853-0.58,1.398-0.58
					c0.548,0,1.016,0.193,1.403,0.58c0.387,0.383,0.581,0.85,0.581,1.396C49.918,49.485,49.724,49.954,49.337,50.342 M46.727,47.732
					c-0.33,0.332-0.494,0.737-0.494,1.206c0,0.478,0.164,0.88,0.492,1.216c0.331,0.336,0.732,0.502,1.209,0.502
					c0.472,0,0.875-0.166,1.206-0.502c0.332-0.336,0.497-0.738,0.497-1.216c0-0.469-0.165-0.874-0.497-1.206
					c-0.333-0.336-0.735-0.503-1.206-0.503C47.461,47.229,47.062,47.396,46.727,47.732 M47.893,47.843
					c0.273,0,0.468,0.025,0.597,0.077c0.224,0.094,0.334,0.279,0.334,0.554c0,0.191-0.068,0.336-0.21,0.429
					c-0.075,0.047-0.18,0.084-0.314,0.104c0.17,0.025,0.294,0.098,0.373,0.214c0.078,0.114,0.119,0.228,0.119,0.337v0.16
					c0,0.051,0.002,0.106,0.006,0.161c0.002,0.058,0.009,0.096,0.018,0.111l0.011,0.026h-0.354
					c-0.003-0.005-0.003-0.012-0.008-0.019c-0.002-0.01-0.004-0.016-0.004-0.023l-0.011-0.071v-0.174
					c0-0.249-0.066-0.417-0.202-0.497c-0.08-0.046-0.222-0.07-0.428-0.07h-0.302v0.854h-0.383v-2.174H47.893z M48.309,48.186
					c-0.094-0.057-0.25-0.082-0.463-0.082h-0.329v0.79h0.347c0.163,0,0.283-0.018,0.365-0.051c0.151-0.059,0.224-0.172,0.224-0.338
					C48.452,48.345,48.406,48.24,48.309,48.186"/>
			</g>
			<g>
				<path fill="#EE3124" d="M46.64,36.189c0.901-0.806,0.98-2.192,0.17-3.095c-0.804-0.904-2.191-0.982-3.092-0.175l-8.111,7.252
					c2.482,2.277,2.225,3.872,2.225,3.872L46.64,36.189z"/>
			</g>
			<g>
				<path fill="#EE3124" d="M31.248,35.586l-1.721-1.814l5.45-4.912c0.505-0.464,1.296-0.43,1.765,0.082
					c0.468,0.509,0.438,1.3-0.067,1.767L31.248,35.586z"/>
			</g>
		</g>
		<g>
			<g>
				<path fill="#EE3124" d="M34.684,39.206l-2.497-2.645l6.435-5.841c0.731-0.687,1.884-0.65,2.572,0.081
					c0.688,0.731,0.65,1.883-0.081,2.571L34.684,39.206z"/>
			</g>
			<g>
				<path fill="#EE3124" d="M16.812,27.38c2.402,0.19,3.786,0.347,5.511,1.353c1.411,0.82,2.671,2.137,3.866,3.428l0.05,0.051
					l0.986,1.069l8.567,9.012c0.433,0.492,0.695,1.141,0.695,1.848c0,1.552-1.257,2.808-2.808,2.808
					c-0.782,0-1.493-0.322-2.003-0.84l-7.683-8.085l-0.007-0.014c-0.125-0.126-0.297-0.208-0.486-0.208
					c-0.372,0-0.672,0.302-0.672,0.674c0,0.18,0.069,0.341,0.181,0.462l0.02,0.022l7.038,7.429c0.722,0.74,1.607,1.44,2.444,1.736
					c0.858,0.306,2.479,0.173,3.196-0.337c0.426-0.304,0.824-0.637,1.204-0.983l12.677-11.432l0.053-0.036
					c0.455-0.321,1.006-0.511,1.606-0.511c1.535,0,2.778,1.243,2.778,2.777c0,0.802-0.343,1.525-0.884,2.033l-8.882,7.999
					c-1.929,1.636-3.87,3.97-6.227,5.159c-6.445,3.24-12.366,1.587-17.053-1.897c-2.303-1.714-4.605-3.601-7.645-4.619
					c-1.464-0.491-5.282-0.595-8.421-0.59L0,45.692V27.36l0.003-0.085c0.506-7.448,3.55-14.146,8.229-19.048
					C13.059,3.159,19.681-0.003,26.975,0c7.52-0.003,14.322,3.358,19.189,8.704c4.872,5.351,7.855,12.7,7.857,20.785
					c0,0.853-0.003,1.491-0.069,2.324c-0.082,1.073-0.98,1.889-2.036,1.889c-0.053,0-0.108-0.003-0.164-0.006
					c-1.126-0.087-1.967-1.072-1.879-2.198c0.055-0.729,0.053-1.264,0.053-2.009c0.002-7.073-2.612-13.442-6.786-18.028
					c-4.185-4.583-9.88-7.367-16.166-7.369c-6.096,0.002-11.634,2.619-15.784,6.96c-3.968,4.158-6.614,9.893-7.093,16.325
					l1.56-0.002c0.242-5.775,2.559-11,6.198-14.847c3.845-4.071,9.203-6.609,15.114-6.609c5.913,0,11.269,2.538,15.114,6.609
					c3.85,4.066,6.219,9.677,6.219,15.85c0,0.699-0.029,1.393-0.088,2.072c-0.076,0.837-0.81,1.452-1.643,1.381
					c-0.836-0.073-1.453-0.81-1.381-1.643c0.053-0.596,0.08-1.197,0.08-1.811c0-5.392-2.067-10.253-5.39-13.766
					c-3.326-3.511-7.878-5.659-12.911-5.659s-9.583,2.147-12.91,5.659c-3.116,3.292-5.127,7.773-5.366,12.765h1.843
					c0.08-4.553,1.895-8.681,4.792-11.688c2.964-3.08,7.086-5,11.634-5c4.546,0,8.669,1.92,11.635,5
					c2.966,3.079,4.795,7.333,4.794,12.011c0.001,0.518-0.021,1.034-0.066,1.542c-0.057,0.659-0.638,1.146-1.298,1.09
					c-0.659-0.059-1.147-0.639-1.09-1.298c0.039-0.44,0.054-0.884,0.054-1.335c0-4.049-1.576-7.702-4.122-10.346
					c-2.548-2.643-6.043-4.265-9.907-4.266c-3.865,0.001-7.358,1.624-9.908,4.266c-2.472,2.57-4.04,6.099-4.121,10.022h1.904
					c0.147-6.793,5.486-12.302,12.13-12.306c6.73,0.003,12.18,5.818,12.192,12.732c0,0.546-0.442,0.988-0.988,0.988
					c-0.544,0-0.987-0.442-0.987-0.988c0-2.939-1.208-5.751-3.049-7.668c-1.847-1.916-4.372-3.087-7.168-3.09
					c-2.795,0.002-5.324,1.174-7.167,3.09c-1.785,1.855-2.915,4.398-2.985,7.228L16.812,27.38z"/>
			</g>
		</g>
		<g>
			<g>
				<path fill="#EE3124" d="M27.762,22.941c-0.186,0.175-0.429,0.292-0.705,0.292c-0.283,0-0.532-0.122-0.719-0.306l-2.437-2.175
					c-0.436-0.389-1.106-0.349-1.493,0.084c-0.391,0.437-0.352,1.107,0.083,1.494l2.294,2.041c0,0,1.126,0.915,1.126,3.383
					l0.014,1.632c0,0.232,0,0.423,0,0.585c-0.001,0.585,0.471,1.059,1.056,1.06h0.002h0.148h0.001
					c0.586-0.001,1.058-0.475,1.057-1.06c0-0.162-0.001-0.353-0.001-0.585l0.019-1.628c0-2.468,1.123-3.383,1.123-3.383l2.292-2.04
					c0.437-0.389,0.475-1.059,0.086-1.494c-0.387-0.438-1.058-0.476-1.495-0.086L27.762,22.941z"/>
			</g>
			<g>
				<path fill="#EE3124" d="M28.482,20.417c0,0.785-0.637,1.423-1.422,1.423c-0.787,0-1.423-0.639-1.423-1.423
					c0-0.786,0.636-1.423,1.423-1.423C27.846,18.995,28.482,19.631,28.482,20.417"/>
			</g>
		</g>
	</g>
	<g>
		<path d="M69.867,45.962c-0.326-0.459-0.904-0.676-1.495-0.676c-0.699,0-1.398,0.312-1.398,1.098c0,1.711,4.051,0.734,4.051,3.772
			c0,1.832-1.447,2.725-3.123,2.725c-1.061,0-2.097-0.325-2.797-1.157l1.146-1.109c0.374,0.567,1.013,0.892,1.688,0.892
			c0.699,0,1.495-0.385,1.495-1.169c0-1.868-4.051-0.796-4.051-3.846c0-1.76,1.567-2.58,3.146-2.58c0.892,0,1.785,0.254,2.448,0.881
			L69.867,45.962z"/>
		<path d="M75.969,51.868h-0.036c-0.41,0.651-1.085,0.939-1.856,0.939c-1.073,0-2.11-0.59-2.11-1.735
			c0-1.88,2.194-2.014,3.641-2.014h0.362v-0.156c0-0.711-0.554-1.085-1.326-1.085c-0.603,0-1.157,0.241-1.543,0.604l-0.76-0.76
			c0.639-0.651,1.543-0.929,2.459-0.929c2.472,0,2.472,1.784,2.472,2.604v3.328h-1.302V51.868z M75.884,50.072h-0.301
			c-0.795,0-2.17,0.06-2.17,0.892c0,0.53,0.542,0.76,1.013,0.76c0.989,0,1.458-0.519,1.458-1.326V50.072z"/>
		<path d="M78.707,46.877h1.447v0.916h0.024c0.313-0.663,0.952-1.061,1.712-1.061c0.181,0,0.35,0.036,0.519,0.085v1.398
			c-0.241-0.061-0.47-0.108-0.699-0.108c-1.363,0-1.555,1.145-1.555,1.458v3.099h-1.447V46.877z"/>
		<path d="M83.277,46.877h1.375v0.929h0.024c0.265-0.579,0.808-1.073,1.772-1.073c1.555,0,2.11,1.097,2.11,2.278v3.653h-1.447v-2.93
			c0-0.64-0.049-1.7-1.061-1.7c-0.953,0-1.326,0.699-1.326,1.471v3.159h-1.447V46.877z"/>
		<path d="M90.813,44.044c0.53,0,0.94,0.374,0.94,0.868s-0.41,0.868-0.94,0.868c-0.531,0-0.917-0.41-0.917-0.868
			S90.282,44.044,90.813,44.044z M90.102,46.877h1.447v5.787h-1.447V46.877z"/>
		<path d="M96.709,51.868h-0.036c-0.41,0.651-1.085,0.939-1.856,0.939c-1.074,0-2.11-0.59-2.11-1.735
			c0-1.88,2.194-2.014,3.641-2.014h0.362v-0.156c0-0.711-0.555-1.085-1.326-1.085c-0.604,0-1.158,0.241-1.543,0.604l-0.76-0.76
			c0.639-0.651,1.543-0.929,2.459-0.929c2.472,0,2.472,1.784,2.472,2.604v3.328h-1.302V51.868z M96.625,50.072h-0.301
			c-0.796,0-2.17,0.06-2.17,0.892c0,0.53,0.542,0.76,1.013,0.76c0.988,0,1.458-0.519,1.458-1.326V50.072z"/>
		<path d="M102.015,50.313h-2.978v-1.23h2.978V50.313z"/>
		<path d="M103.257,44.129h1.52v7.16h3.629v1.375h-5.148V44.129z"/>
		<path d="M112.879,51.868h-0.036c-0.409,0.651-1.085,0.939-1.856,0.939c-1.073,0-2.109-0.59-2.109-1.735
			c0-1.88,2.193-2.014,3.64-2.014h0.362v-0.156c0-0.711-0.555-1.085-1.326-1.085c-0.603,0-1.157,0.241-1.543,0.604l-0.76-0.76
			c0.639-0.651,1.543-0.929,2.46-0.929c2.472,0,2.472,1.784,2.472,2.604v3.328h-1.303V51.868z M112.795,50.072h-0.302
			c-0.796,0-2.17,0.06-2.17,0.892c0,0.53,0.543,0.76,1.013,0.76c0.988,0,1.459-0.519,1.459-1.326V50.072z"/>
		<path d="M115.557,46.877h1.374v0.904h0.024c0.253-0.542,0.808-1.049,1.772-1.049c0.892,0,1.507,0.35,1.808,1.073
			c0.422-0.735,1.037-1.073,1.905-1.073c1.543,0,2.086,1.097,2.086,2.483v3.448h-1.446v-3.279c0-0.723-0.217-1.351-1.073-1.351
			c-0.904,0-1.242,0.747-1.242,1.495v3.135h-1.446v-3.448c0-0.711-0.29-1.182-0.989-1.182c-0.952,0-1.326,0.699-1.326,1.471v3.159
			h-1.446V46.877z"/>
		<path d="M125.988,43.55h1.446v4.062h0.037c0.302-0.373,0.88-0.88,1.965-0.88c1.652,0,2.797,1.326,2.797,3.038
			c0,1.711-1.073,3.037-2.857,3.037c-0.808,0-1.567-0.312-1.989-1.012h-0.024v0.868h-1.374V43.55z M129.086,48.034
			c-1.062,0-1.7,0.832-1.7,1.736s0.639,1.735,1.7,1.735c1.061,0,1.699-0.831,1.699-1.735S130.147,48.034,129.086,48.034z"/>
		<path d="M132.789,48.107v-1.23h1.194v-1.676h1.446v1.676h1.591v1.23h-1.591v2.531c0,0.578,0.169,0.94,0.808,0.94
			c0.253,0,0.603-0.049,0.783-0.181v1.217c-0.301,0.145-0.807,0.192-1.146,0.192c-1.53,0-1.892-0.687-1.892-2.048v-2.652H132.789z"
			/>
		<path d="M140.891,46.732c1.749,0,3.146,1.218,3.146,3.038s-1.397,3.037-3.146,3.037c-1.748,0-3.146-1.217-3.146-3.037
			S139.143,46.732,140.891,46.732z M140.891,51.506c1.062,0,1.7-0.831,1.7-1.735s-0.639-1.736-1.7-1.736
			c-1.061,0-1.7,0.832-1.7,1.736S139.831,51.506,140.891,51.506z"/>
		<path d="M145.269,46.877h1.375v0.929h0.024c0.265-0.579,0.807-1.073,1.771-1.073c1.555,0,2.109,1.097,2.109,2.278v3.653h-1.446
			v-2.93c0-0.64-0.048-1.7-1.061-1.7c-0.952,0-1.326,0.699-1.326,1.471v3.159h-1.447V46.877z"/>
	</g>
	<g>
		<g>
			<polygon fill="#5F6062" points="141.833,23.678 138.101,36.437 135.491,36.437 132.555,27.783 132.515,27.783 129.592,36.437 
				127.075,36.437 123.291,23.678 126.46,23.678 128.447,31.665 128.484,31.665 131.258,23.687 133.984,23.687 136.75,31.89 
				136.788,31.89 138.882,23.678 			"/>
		</g>
		<g>
			<path fill="#5F6062" d="M76.437,31.302c0,3.138-1.916,5.468-5.598,5.468c-3.7,0-5.616-2.33-5.616-5.468v-7.629h2.93v7.517
				c0,1.635,1.129,2.875,2.687,2.875c1.54,0,2.668-1.24,2.668-2.875v-7.517h2.93V31.302z"/>
		</g>
		<g>
			<path fill="#5F6062" d="M77.784,27.303h2.705v1.239h0.038c0.375-0.715,1.296-1.466,2.667-1.466c2.856,0,3.381,1.879,3.381,4.323
				v5.033h-2.818v-4.471c0-1.053-0.018-2.406-1.464-2.406c-1.465,0-1.692,1.147-1.692,2.331v4.546h-2.817V27.303z"/>
		</g>
		<g>
			<path fill="#5F6062" d="M90.892,36.432h-2.817v-9.13h5.109v-3.633h2.818v3.633h2.477v2.254h-2.477V32.6
				c0,0.979,0.111,1.689,1.332,1.689c0.303,0,0.903-0.036,1.145-0.263v2.348c-0.618,0.225-1.314,0.282-1.971,0.282
				c-1.879,0-3.324-0.77-3.324-2.76v-4.34h-2.295L90.892,36.432z"/>
		</g>
		<g>
			<path fill="#5F6062" d="M107.891,34.854c-0.902,1.146-2.384,1.803-3.85,1.803c-2.819,0-5.071-1.879-5.071-4.79
				s2.252-4.791,5.071-4.791c2.627,0,4.282,1.879,4.282,4.791v0.885h-6.536c0.226,1.07,1.031,1.764,2.121,1.764
				c0.922,0,1.54-0.469,2.012-1.108L107.891,34.854z M105.507,30.834c0.018-0.939-0.715-1.73-1.729-1.73
				c-1.24,0-1.915,0.849-1.99,1.73H105.507z"/>
		</g>
		<g>
			<path fill="#5F6062" d="M118.956,36.431h-2.592v-1.199h-0.038c-0.432,0.655-1.522,1.425-2.8,1.425
				c-2.705,0-4.487-1.954-4.487-4.715c0-2.535,1.575-4.866,4.169-4.866c1.164,0,2.253,0.322,2.893,1.203h0.036v-4.604h2.819V36.431z
				 M114.109,29.555c-1.407,0-2.255,0.941-2.255,2.309c0,1.374,0.848,2.312,2.255,2.312c1.411,0,2.255-0.938,2.255-2.312
				C116.364,30.496,115.52,29.555,114.109,29.555"/>
		</g>
		<g>
			<path fill="#5F6062" d="M146.956,35.284h-0.036c-0.62,0.979-1.748,1.372-2.894,1.372c-1.709,0-3.248-0.976-3.248-2.816
				c0-3.156,3.828-3.213,6.178-3.213c0-0.997-0.825-1.636-1.803-1.636c-0.922,0-1.69,0.416-2.291,1.091l-1.504-1.54
				c1.034-0.977,2.538-1.464,4.02-1.464c3.288,0,4.17,1.668,4.17,4.713v4.641h-2.592V35.284z M146.262,32.429
				c-0.864,0-2.783,0.079-2.783,1.317c0,0.676,0.716,0.996,1.338,0.996c1.107,0,2.139-0.583,2.139-1.712v-0.602H146.262z"/>
		</g>
		<g>
			<path fill="#5F6062" d="M155.867,37.915c-0.753,1.936-1.183,3.026-3.87,3.026c-0.713,0-1.429-0.114-2.104-0.338l0.375-2.313
				c0.433,0.191,0.847,0.282,1.315,0.282c1.278,0,1.483-0.544,1.88-1.539l0.208-0.526l-4.004-9.204h3.044l2.349,6.029h0.036
				l2.012-6.029H160L155.867,37.915z"/>
		</g>
		<g>
			<rect x="88.079" y="23.672" fill="#5F6062" width="2.817" height="2.323"/>
		</g>
	</g>
</g>
</svg>
