<?xml version="1.0" encoding="utf-8"?>
<!-- Generator: Adobe Illustrator 16.0.0, SVG Export Plug-In . SVG Version: 6.00 Build 0)  -->
<!DOCTYPE svg PUBLIC "-//W3C//DTD SVG 1.1//EN" "http://www.w3.org/Graphics/SVG/1.1/DTD/svg11.dtd">
<svg version="1.1" id="Layer_1" xmlns="http://www.w3.org/2000/svg" xmlns:xlink="http://www.w3.org/1999/xlink" x="0px" y="0px"
	 width="17px" height="15.004px" viewBox="0 0 17 15.004" enable-background="new 0 0 17 15.004" xml:space="preserve">
<g>
	<g>
		<path fill="#0099CC" d="M0.073,15.004H4.2V4.733H0.073V15.004z M2.174,0C0.973,0,0,0.826,0,1.846s0.973,1.846,2.174,1.846
			s2.174-0.826,2.174-1.846S3.375,0,2.174,0z M15.06,5.017c-1.818-1.089-4.815-0.615-5.675,1.112
			C9.311,5.537,9.163,4.709,9.163,4.709L5.602,4.733c0,0,0.122,1.893,0.122,2.366c0,0.473,0,7.904,0,7.904h4.103c0,0,0-5.467,0-5.87
			c0-0.401,0.468-1.538,1.475-1.538s1.548,0.923,1.548,1.657s0,5.751,0,5.751H17c0,0,0-5.491,0-6.2
			C17,8.094,16.877,6.105,15.06,5.017z"/>
	</g>
</g>
</svg>
