<?xml version="1.0" encoding="utf-8"?>
<!-- Generator: Adobe Illustrator 16.0.0, SVG Export Plug-In . SVG Version: 6.00 Build 0)  -->
<!DOCTYPE svg PUBLIC "-//W3C//DTD SVG 1.1//EN" "http://www.w3.org/Graphics/SVG/1.1/DTD/svg11.dtd">
<svg version="1.1" id="Layer_1" xmlns="http://www.w3.org/2000/svg" xmlns:xlink="http://www.w3.org/1999/xlink" x="0px" y="0px"
	 width="20.301px" height="16.405px" viewBox="0 0 20.301 16.405" enable-background="new 0 0 20.301 16.405" xml:space="preserve">
<path fill="#FFFFFF" d="M18.423,4.061C19.085,13.578,8.048,19.516,0,14.692c2.257,0.017,4.759-0.587,6.102-1.829
	c-1.952-0.308-3.336-1.171-3.873-2.858c0.572-0.052,1.375,0.12,1.761-0.113C2.203,9.23,0.791,8.205,0.703,5.89
	C1.34,5.956,1.67,6.319,2.464,6.233C1.309,5.511-0.01,2.769,1.173,0.746C3.269,3.01,5.886,4.767,9.975,5.09
	c-1.015-4.203,4.703-6.806,7.274-3.772c1-0.207,1.843-0.567,2.699-0.915c-0.351,0.954-1.062,1.556-1.76,2.172
	c0.758-0.138,1.559-0.234,2.112-0.572C20.203,2.748,19.094,3.495,18.423,4.061z"/>
</svg>
